<svg width="281" height="45" viewBox="0 0 281 45" fill="none" xmlns="http://www.w3.org/2000/svg">
<path fill-rule="evenodd" clip-rule="evenodd" d="M22.0418 44.6289C18.0522 44.6289 14.1127 43.7608 8.86273 41.7285C8.80013 41.7034 8.75005 41.6659 8.70832 41.6158C1.79744 32.8979 -0.126421 26.9677 0.466179 16.2425C0.466179 16.1757 0.491218 16.1131 0.528777 16.0589C6.6843 6.79013 11.7256 3.12602 22.1128 0.380035C22.142 0.371689 22.1753 0.367516 22.2046 0.367516C22.2379 0.367516 22.2713 0.371689 22.3047 0.380035C33.0174 3.37225 38.0629 7.03635 43.8887 16.0631C43.9221 16.1173 43.9429 16.1799 43.9471 16.2467C44.4104 27.36 42.4865 33.2902 35.7008 41.62C35.6591 41.67 35.6048 41.7076 35.5464 41.7326C30.1588 43.7358 25.9939 44.6289 22.046 44.6289H22.0418Z" fill="#2284C3"/>
<path d="M22.2083 0.730316C32.8876 3.71001 37.8746 7.41584 43.5836 16.2589C44.0468 27.3389 42.0645 33.2231 35.4165 41.386C30.2417 43.3098 26.1061 44.2613 22.0413 44.2613C17.9766 44.2613 13.9244 43.2931 8.99162 41.386C2.10578 32.7015 0.248688 26.7713 0.832941 16.2631C6.9676 7.02356 12.0297 3.42623 22.2083 0.730316ZM22.2083 0C22.1457 0 22.0831 0.00834647 22.0205 0.0250394C11.5289 2.80024 6.4376 6.5019 0.223649 15.8583C0.152704 15.9668 0.110971 16.092 0.102625 16.2214C-0.498321 27.0551 1.44641 33.0437 8.42406 41.845C8.50335 41.9452 8.61185 42.0245 8.73288 42.0746C14.0287 44.1236 18.01 45 22.0455 45C26.081 45 30.2459 44.0986 35.6753 42.0787C35.7963 42.0328 35.9048 41.9577 35.9883 41.8534C42.8407 33.4401 44.7855 27.4557 44.3181 16.2339C44.3139 16.1045 44.2722 15.9793 44.2012 15.8666C38.3128 6.74812 33.2214 3.04646 22.4044 0.0250394C22.3418 0.00834647 22.275 0 22.2083 0Z" fill="white"/>
<path d="M7.30514 18.3877L6.8294 19.0721L5.89876 20.4785L5.27695 22.2813L4.94727 23.045L5.00986 24.3095L5.52735 25.1776L5.71097 26.1917L5.96136 26.8969L6.52058 27.9319L6.47884 28.4702L6.60404 29.0295L7.03806 29.8182L7.45121 30.3357L7.5764 30.9575" stroke="#201D1F" stroke-width="0.11" stroke-miterlimit="2.61"/>
<path fill-rule="evenodd" clip-rule="evenodd" d="M22.2093 35.6022C21.3204 35.3644 20.4232 34.9387 19.6344 34.3586C19.4717 34.2376 19.3089 34.1082 19.1545 33.9747C19.0961 33.9246 19.0377 33.8704 18.9751 33.8161C17.9526 34.2334 16.4753 34.705 14.9729 34.9721C13.7126 35.1933 12.4273 35.2767 11.3506 35.0514C10.2321 34.8219 9.33489 34.2752 8.91339 33.2444C8.84244 33.0691 8.78402 32.8771 8.74229 32.6726C7.87843 32.1009 7.45693 31.4081 7.31504 30.8489C7.28583 30.7279 7.26913 30.6152 7.26079 30.5109C7.25661 30.4525 7.25661 30.3941 7.26079 30.3356C6.66819 29.7472 6.30512 29.1379 6.25921 28.5704C6.25086 28.4493 6.25504 28.3283 6.2759 28.2073C6.28842 28.1363 6.30094 28.0696 6.32181 28.007L6.32598 28.0028C6.02968 27.6522 5.79181 27.2933 5.63323 26.8802C5.4663 26.4462 5.38283 25.9579 5.40787 25.3653C4.35204 24.3971 4.48141 22.8739 5.13244 21.5844C5.88779 20.0778 6.90189 18.6464 7.34425 17.3819C7.59047 16.6766 7.78244 17.1148 7.78244 17.336C7.78244 18.3877 7.61134 19.5186 7.3985 20.5285C7.37347 20.6329 7.3526 20.7414 7.28165 21.0877C7.17315 21.6094 7.17732 22.0935 7.32339 22.4482C7.38598 22.5901 7.46945 22.7153 7.58213 22.8071C7.6948 22.8989 7.83669 22.9699 8.01614 23.0074C8.42512 23.0867 9.0052 22.9991 9.78977 22.6694C11.6969 21.8681 13.5415 21.1629 14.8603 21.0752C16.3292 20.9751 17.1806 21.5635 16.901 23.4289C16.8634 23.6835 16.8175 23.9506 16.7799 24.1843C16.6756 24.8103 16.6172 25.1608 16.6589 25.4988C16.6881 25.7492 16.7549 26.0372 16.9343 26.3335C17.0846 26.5797 17.3141 26.8301 17.6688 27.0763C17.6855 27.0263 17.7022 26.9762 17.7231 26.9261C17.6188 25.8619 17.7231 24.8019 18.1738 23.8045C18.2531 23.6292 18.3449 23.454 18.4492 23.2787L16.396 13.2754C16.2541 12.5869 16.0955 12.1612 15.8243 11.9525C15.4612 11.6854 14.8644 11.7606 14.4513 11.8273C14.0965 11.8858 14.0965 11.6813 14.3469 11.5352C14.7309 11.3182 15.1983 11.0094 15.6156 10.7298C16.3668 10.229 17.1305 9.78244 17.9735 10.4209C18.0778 9.70315 18.6454 9.32756 19.1837 8.95614C19.3381 8.83929 19.7221 8.62228 19.9266 8.32598C20.1185 8.04638 20.3439 7.94622 20.3856 8.27591C20.394 8.36354 20.4273 8.53465 20.4566 8.72244C20.8447 8.30512 21.4206 8.06724 21.7962 7.66244C22.0132 7.43291 22.0173 7.2159 22.2218 7.20756C22.4222 7.22008 22.4305 7.43291 22.6433 7.66244C23.0231 8.06724 23.599 8.30512 23.9829 8.72244C24.0122 8.53465 24.0455 8.36354 24.0539 8.27591C24.0914 7.94622 24.3168 8.04638 24.5129 8.32598C24.7216 8.62228 25.1055 8.83929 25.26 8.95614C25.79 9.32756 26.3617 9.70315 26.466 10.4209C27.309 9.78244 28.0685 10.229 28.8239 10.7298C29.2412 11.0052 29.7086 11.3182 30.0926 11.5352C30.343 11.6771 30.3388 11.8858 29.9882 11.8273C29.5793 11.7606 28.9783 11.6813 28.6152 11.9525C28.344 12.157 28.1854 12.5869 28.0435 13.2754L25.9903 23.2787C26.0904 23.4498 26.1822 23.6251 26.2615 23.8045C26.7081 24.8019 26.8166 25.8661 26.7122 26.9261C26.7331 26.972 26.7498 27.0263 26.7665 27.0763C27.1212 26.8301 27.3507 26.5797 27.501 26.3335C27.6804 26.0414 27.7472 25.7534 27.7764 25.4988C27.8181 25.1608 27.7597 24.8103 27.6554 24.1843C27.6178 23.9506 27.5719 23.6835 27.5344 23.4289C27.2506 21.5677 28.1061 20.9792 29.5751 21.0752C30.8938 21.1629 32.7342 21.8723 34.6456 22.6694C35.426 22.9991 36.006 23.0867 36.415 23.0074C36.5903 22.9699 36.7322 22.9031 36.8449 22.8071C36.9575 22.7111 37.041 22.5901 37.1036 22.4482C37.2497 22.0935 37.2538 21.6094 37.1453 21.0877C37.0744 20.7414 37.0535 20.6329 37.0285 20.5285C36.8198 19.5186 36.6487 18.3877 36.6487 17.336C36.6487 17.1148 36.8407 16.6808 37.0869 17.3819C37.5293 18.6464 38.5392 20.0778 39.2945 21.5844C39.9456 22.8739 40.0749 24.3971 39.0191 25.3653C39.0441 25.9579 38.9607 26.4462 38.7938 26.8802C38.6352 27.2975 38.3973 27.6522 38.1052 28.0028V28.007C38.126 28.0737 38.1427 28.1405 38.1553 28.2073C38.1761 28.3325 38.1803 28.4535 38.1719 28.5704C38.126 29.1379 37.763 29.7472 37.1704 30.3356C37.1704 30.3941 37.1704 30.4525 37.1704 30.5109C37.1662 30.6111 37.1453 30.7279 37.1161 30.8489C36.9784 31.4081 36.5527 32.1009 35.6889 32.6726C35.6471 32.8771 35.5887 33.0691 35.5178 33.2444C35.1004 34.2752 34.2032 34.8219 33.0848 35.0514C32.0081 35.2726 30.7227 35.1933 29.4624 34.9721C27.96 34.705 26.4869 34.2334 25.4603 33.8161C25.4018 33.8704 25.3434 33.9246 25.2808 33.9747C25.1222 34.1124 24.9637 34.2376 24.8009 34.3586C24.008 34.9387 23.1107 35.3644 22.226 35.6022" fill="#201D1F"/>
<path fill-rule="evenodd" clip-rule="evenodd" d="M21.6624 19.7311C21.8585 19.9773 22.0588 20.2318 22.2091 20.5365C22.3593 20.2277 22.5596 19.9773 22.7516 19.7311C23.0562 19.3471 23.3483 18.9799 23.3609 18.4248C23.3734 17.8531 23.0395 17.3857 22.7057 16.9183C22.5262 16.6679 22.3468 16.4175 22.2091 16.1462C22.0672 16.4217 21.8877 16.6679 21.7124 16.9183C21.3744 17.3857 21.0405 17.8531 21.0572 18.4248C21.0698 18.9757 21.3619 19.3471 21.6665 19.7311" fill="white"/>
<path fill-rule="evenodd" clip-rule="evenodd" d="M8.98618 32.2719C9.45776 32.4764 9.8876 32.5807 10.3216 32.6266C10.7139 32.6683 11.1145 32.6642 11.5485 32.6475C11.8448 32.635 11.8782 33.1191 11.5402 33.1316C11.102 33.1524 10.6889 33.1524 10.2715 33.1065C9.95437 33.0731 9.6372 33.0105 9.30752 32.9062C9.32838 32.9646 9.34925 33.0231 9.37012 33.0773C9.72067 33.937 10.4885 34.3961 11.4567 34.5922C12.4667 34.7967 13.6894 34.7216 14.8997 34.5087C16.16 34.2876 17.3952 33.9161 18.3509 33.5572C16.9237 33.2943 15.8136 32.8061 15.0499 32.0632C14.1902 31.2244 13.7771 30.0684 13.8605 28.5577C13.9148 27.5728 14.2152 26.5587 14.4907 25.6197C14.6826 24.9646 14.8663 24.3386 14.9456 23.796C15.0874 22.7903 14.8412 22.0475 13.4766 21.8388C12.4333 22.1226 11.2189 22.6067 9.97106 23.1283C9.09051 23.4997 8.41445 23.5916 7.91783 23.4914C7.65909 23.4413 7.44208 23.337 7.27098 23.1909C7.09988 23.0449 6.96633 22.8612 6.8787 22.6442C6.6909 22.1935 6.68255 21.6134 6.80775 21.0042C6.8161 20.9666 6.87035 20.6995 6.9246 20.4408C7.04145 19.8732 7.15413 19.3432 7.24177 18.7798C7.02059 19.218 6.76602 19.6604 6.51145 20.1027C5.71854 21.4799 4.92562 22.8654 5.19688 24.0381C5.53491 25.5071 7.25846 25.8409 8.5146 26.0246C9.05712 26.1038 8.99453 26.5838 8.40193 26.492C7.70917 26.3793 6.90791 26.204 6.2694 25.9286C6.14003 25.8701 6.01484 25.8075 5.89381 25.7408C5.91051 26.1122 5.97728 26.4294 6.08578 26.7173C6.62413 28.1195 7.68413 28.2739 9.03208 28.4116C9.6539 28.4784 9.62886 28.9542 9.00287 28.8957C8.32681 28.8373 7.5798 28.7121 7.02059 28.4784C6.9246 28.4367 6.83279 28.395 6.7535 28.349C6.61996 29.1002 7.21673 29.8013 7.93035 30.1435C8.66484 30.4983 9.52453 30.4899 10.1046 30.444C10.5344 30.4106 10.5428 30.9281 10.113 30.9323C9.6539 30.9323 9.15311 30.9323 8.67736 30.8613C8.35185 30.8196 8.04303 30.7445 7.7676 30.636C7.77177 30.6694 7.78011 30.7028 7.78846 30.7403C7.90114 31.1994 8.25586 31.7711 8.98618 32.2635" fill="white"/>
<path fill-rule="evenodd" clip-rule="evenodd" d="M20.7181 21.6467C19.6623 22.352 18.9945 23.1574 18.6064 24.013C18.3101 24.6723 18.1808 25.3693 18.1641 26.0745C18.4353 25.6656 18.7608 25.2983 19.0905 24.9227C19.8167 24.0964 20.5553 23.2534 20.6889 21.9597C20.6972 21.8554 20.7056 21.7552 20.7139 21.6467" fill="white"/>
<path fill-rule="evenodd" clip-rule="evenodd" d="M35.4248 32.2719C34.9532 32.4764 34.5192 32.5807 34.0893 32.6266C33.697 32.6683 33.2964 32.6642 32.8624 32.6475C32.5661 32.635 32.5327 33.1191 32.8707 33.1316C33.3089 33.1524 33.7221 33.1524 34.1436 33.1065C34.4607 33.0731 34.7779 33.0105 35.1076 32.9062C35.0909 32.9646 35.07 33.0231 35.045 33.0773C34.6944 33.937 33.9266 34.3961 32.9584 34.5922C31.9485 34.7967 30.7257 34.7216 29.5196 34.5087C28.2593 34.2876 27.024 33.9161 26.0684 33.5572C27.4956 33.2943 28.6057 32.8061 29.3652 32.0632C30.2291 31.2244 30.6381 30.0684 30.5546 28.5577C30.5003 27.5728 30.1999 26.5587 29.9244 25.6197C29.7325 24.9646 29.5488 24.3386 29.4695 23.796C29.3277 22.7903 29.5781 22.0475 30.9385 21.8388C31.9818 22.1226 33.1962 22.6067 34.444 23.1283C35.3246 23.4997 36.0007 23.5916 36.4973 23.4914C36.7602 23.4413 36.973 23.337 37.1441 23.1909C37.3152 23.0449 37.4446 22.8612 37.5364 22.6442C37.7242 22.1935 37.7326 21.6134 37.6074 21.0042C37.599 20.9666 37.5448 20.6995 37.4905 20.4408C37.3695 19.8732 37.261 19.3432 37.1692 18.7798C37.3903 19.218 37.6449 19.6604 37.8995 20.1027C38.6924 21.4799 39.4853 22.8654 39.2182 24.0381C38.8802 25.5071 37.1566 25.8409 35.9005 26.0246C35.358 26.1038 35.4206 26.5838 36.0132 26.492C36.7101 26.3793 37.5114 26.204 38.1457 25.9286C38.2751 25.8701 38.4003 25.8075 38.5171 25.7408C38.5046 26.1122 38.4378 26.4294 38.3252 26.7173C37.7868 28.1195 36.7268 28.2739 35.3788 28.4116C34.757 28.4784 34.7821 28.9542 35.4122 28.8957C36.0883 28.8373 36.8353 28.7121 37.3945 28.4784C37.4905 28.4367 37.5781 28.395 37.6658 28.349C37.7993 29.1002 37.1984 29.8013 36.4848 30.1435C35.7503 30.4983 34.8906 30.4899 34.3105 30.444C33.8807 30.4106 33.8765 30.9281 34.3022 30.9323C34.7612 30.9323 35.262 30.9323 35.7377 30.8613C36.0633 30.8196 36.3721 30.7445 36.6475 30.636C36.6433 30.6694 36.635 30.7028 36.6266 30.7403C36.514 31.1994 36.1551 31.7711 35.4289 32.2635" fill="white"/>
<path fill-rule="evenodd" clip-rule="evenodd" d="M23.6936 21.6467C24.7495 22.352 25.4172 23.1574 25.8011 24.013C26.1016 24.6723 26.231 25.3693 26.2435 26.0745C25.9722 25.6656 25.6467 25.2983 25.317 24.9227C24.5909 24.0964 23.8522 23.2534 23.7145 21.9597C23.7061 21.8554 23.6936 21.7552 23.6895 21.6467" fill="white"/>
<path fill-rule="evenodd" clip-rule="evenodd" d="M22.2073 31.5457C22.0821 31.5457 22.0612 31.7502 21.9986 31.9338C21.9402 32.1007 21.8734 32.2509 21.7858 32.4095C21.7399 32.493 21.6982 32.5723 21.6606 32.6558C21.2934 33.4779 21.6898 34.0371 22.2115 34.5713C22.7498 34.0079 23.1296 33.4737 22.7582 32.6558C22.7248 32.5723 22.6747 32.4888 22.633 32.4095C22.5453 32.2551 22.4744 32.1049 22.4201 31.9338C22.3534 31.7502 22.3367 31.5457 22.2115 31.5457" fill="white"/>
<path fill-rule="evenodd" clip-rule="evenodd" d="M23.1811 20.1406C23.1811 20.1406 23.1477 20.1781 23.131 20.199C22.8681 20.5328 22.5927 20.8792 22.4842 21.3675C22.3631 21.91 22.0543 21.9559 21.9333 21.3925C21.8415 20.9502 21.612 20.6247 21.3741 20.32V20.3325C21.3282 20.2741 21.2781 20.2115 21.2322 20.1489C21.2322 20.7415 21.2322 21.4969 21.1738 22.0102C21.0194 23.4583 20.2306 24.3639 19.4544 25.2486C18.8451 25.9414 18.2525 26.6216 18.0439 27.523L17.9687 27.8444L17.685 27.6774C17.0965 27.3352 16.7376 26.9638 16.5164 26.6007C16.2911 26.2335 16.2076 25.8788 16.1701 25.5741C16.1242 25.1735 16.1826 24.7979 16.2994 24.126C16.3287 23.9299 16.3662 23.7045 16.4163 23.379C16.6333 21.9601 15.9906 21.5094 14.8889 21.5845C14.7595 21.5928 14.6218 21.6095 14.4841 21.6304C15.4064 22.0519 15.5733 22.8573 15.4272 23.8714C15.3479 24.4515 15.1601 25.09 14.9598 25.7703C14.6927 26.6842 14.4048 27.6607 14.3505 28.5997C14.2712 29.9644 14.6343 30.9951 15.3938 31.7338C16.1659 32.4892 17.3553 32.9566 18.9244 33.1777L19.0621 33.2487C19.1957 33.3864 19.3334 33.52 19.4753 33.641C19.6172 33.7662 19.7674 33.8872 19.926 33.9999C20.4476 34.3838 21.516 35.1767 22.142 35.1684C22.7972 35.16 24.4957 33.9999 24.4957 33.9999C24.4957 33.9999 24.8003 33.762 24.9464 33.641C25.0883 33.5158 25.226 33.3864 25.3595 33.2487L25.5014 33.1777C27.0706 32.9566 28.2599 32.4892 29.032 31.7338C29.7915 30.9951 30.1504 29.9644 30.0753 28.5997C30.021 27.6607 29.7331 26.6842 29.4618 25.7703C29.2657 25.0942 29.0779 24.4515 28.9944 23.8714C28.8484 22.8615 29.0153 22.0561 29.9376 21.6304C29.7957 21.6095 29.6621 21.5928 29.5328 21.5845C28.431 21.5094 27.7842 21.9601 28.0012 23.379C28.0513 23.7087 28.0888 23.9299 28.1222 24.126C28.2349 24.8021 28.2975 25.1735 28.2516 25.5741C28.214 25.8788 28.1306 26.2335 27.9052 26.6007C27.684 26.9638 27.3251 27.3352 26.7367 27.6774L26.4529 27.8444L26.3778 27.523C26.1691 26.6174 25.5724 25.9414 24.9672 25.2486C24.191 24.3639 23.3939 23.4583 23.2479 22.0102C23.1936 21.4927 23.1895 20.7332 23.1936 20.1406" fill="white"/>
<path fill-rule="evenodd" clip-rule="evenodd" d="M20.7479 19.4517C20.6435 19.2221 20.5726 18.9634 20.5684 18.6546C20.5517 17.9243 20.9315 17.3901 21.3154 16.8559C21.6618 16.3718 21.9414 16.0672 22.0499 15.3702C22.1042 15.0239 22.2961 15.0781 22.3462 15.3786C22.4589 16.0254 22.7469 16.3593 23.0974 16.8559C23.4813 17.3901 23.8611 17.9243 23.8486 18.6546C23.8402 18.9676 23.7693 19.2263 23.6691 19.4517C23.6691 19.9608 23.665 20.6243 23.6691 21.1126C24.4954 21.6176 25.1214 22.181 25.5888 22.7819L25.5972 22.736L27.5503 13.2419C27.7172 12.4323 27.9175 11.919 28.3056 11.631C28.4558 11.5183 28.6311 11.4432 28.8356 11.4057C28.7814 11.3681 28.7229 11.3305 28.6687 11.293C28.051 10.8798 27.4292 10.4625 26.7782 10.8757C26.5362 11.0301 26.4235 11.1428 26.3776 11.414L25.4177 16.7224C25.3301 17.123 24.8502 17.0479 24.9503 16.593L25.8768 11.4557C25.9352 11.1344 26.0312 10.7797 25.9352 10.4583C25.7933 9.98259 25.3468 9.67377 24.942 9.39416C24.7584 9.26479 24.5747 9.14377 24.4287 9.00605C24.412 9.12708 24.3911 9.2481 24.3786 9.34409L23.7776 15.4495C23.7317 15.8251 23.2518 15.7834 23.2977 15.3452L23.811 10.1495C23.8611 9.62369 23.8862 9.3733 23.4939 9.00188C23.3269 8.8433 23.135 8.69306 22.9472 8.55117C22.751 8.40093 22.5591 8.27574 22.4047 8.1255C22.3254 8.04621 22.2544 7.96274 22.2002 7.87511C22.1417 7.96274 22.075 8.04621 21.9957 8.1255C21.8454 8.27574 21.6493 8.40093 21.4532 8.55117C21.2654 8.69723 21.0734 8.84747 20.9065 9.00188C20.5142 9.37747 20.5392 9.62369 20.5893 10.1495L21.1026 15.3452C21.1527 15.7876 20.6686 15.8293 20.6227 15.4495L20.0217 9.34409C20.005 9.2481 19.9883 9.12708 19.9675 9.00605C19.8172 9.14377 19.6378 9.26479 19.45 9.39416C19.0494 9.67377 18.5987 9.98259 18.4609 10.4583C18.365 10.7797 18.4609 11.1344 18.5194 11.4557L19.4458 16.593C19.546 17.0479 19.0661 17.123 18.9784 16.7224L18.0186 11.414C17.9685 11.1428 17.86 11.0301 17.618 10.8757C16.9669 10.4625 16.3451 10.8757 15.7316 11.293C15.6732 11.3305 15.619 11.3681 15.5605 11.4057C15.765 11.4432 15.9361 11.5183 16.0905 11.631C16.4787 11.919 16.679 12.4365 16.8459 13.2419L18.7948 22.736L18.8073 22.7819C19.2706 22.181 19.9007 21.6176 20.727 21.1126C20.7395 20.6243 20.727 19.9608 20.7312 19.4517" fill="white"/>
<path fill-rule="evenodd" clip-rule="evenodd" d="M22.3935 39.2414C23.0403 39.1955 23.5536 38.9785 24.1587 38.7531C25.0727 38.4068 25.8948 38.1021 27.514 38.5111C27.9606 38.6238 28.4321 38.8283 28.9329 39.0453C29.9846 39.496 31.1447 39.9968 32.4969 39.8841L32.6262 39.4501C32.0462 38.9952 31.8584 38.1355 31.6789 37.3259C31.633 37.1131 31.5871 36.9002 31.5287 36.6832L31.4828 36.5121L31.3075 36.4996C30.3101 36.4245 29.634 36.124 28.7493 35.811C28.3695 35.6775 28.0732 35.4855 27.5933 35.3353C26.2913 34.9305 24.9475 35.3227 23.8457 35.6023C23.2615 35.7526 22.7816 36.1365 22.2599 36.1574H22.2224H22.189C21.6673 36.1407 21.5171 35.7526 20.9328 35.6023C19.8269 35.3227 18.6334 35.0181 17.3313 35.4271C16.8514 35.5773 16.3256 35.8861 15.9458 36.0238C15.0653 36.341 14.3683 36.5413 13.4669 36.5038L13.2958 36.5163L13.2499 36.6874C13.1915 36.9086 13.1456 37.1172 13.0997 37.3301C12.9202 38.1397 12.7324 38.9994 12.1523 39.4542L12.2817 39.8883C13.6338 40.0009 14.7982 39.5001 15.8457 39.0494C16.3464 38.8324 16.8264 38.6279 17.2646 38.5153C18.8879 38.1063 19.7059 38.4151 20.624 38.7573C21.225 38.9827 21.7424 39.1997 22.3893 39.2456" fill="white"/>
<path d="M32.1068 40.0635C30.8882 40.0635 29.8199 39.6045 28.8767 39.1955L28.8392 39.1788C28.3551 38.9701 27.896 38.774 27.4745 38.6697C26.9654 38.5403 26.5189 38.4777 26.1015 38.4777C25.3462 38.4777 24.7995 38.6864 24.2152 38.9034C24.1526 38.9284 24.09 38.9493 24.0316 38.9743C23.5058 39.1746 23.0092 39.3583 22.4082 39.4H22.3957H22.3832C21.7739 39.3583 21.2773 39.1705 20.7515 38.9701C20.693 38.9493 20.6346 38.9284 20.572 38.9034C19.9878 38.6822 19.4369 38.4777 18.6857 38.4777C18.2684 38.4777 17.8218 38.5403 17.3127 38.6697C16.887 38.7782 16.4196 38.9785 15.923 39.1913H15.9105C14.9674 39.6045 13.899 40.0635 12.6762 40.0635C12.5427 40.0635 12.405 40.0552 12.2714 40.0468L12.1588 40.0385L11.9668 39.3916L12.0544 39.3249C12.5886 38.9034 12.7681 38.0854 12.9433 37.2925L12.96 37.2132C13.0018 37.0379 13.0393 36.8501 13.0894 36.6623L13.1687 36.3619L13.465 36.3368H13.4775C13.5485 36.341 13.6236 36.341 13.6945 36.341C14.429 36.341 15.0341 36.1741 15.8938 35.8653C16.0524 35.8068 16.2444 35.7192 16.4447 35.6232C16.7201 35.4938 17.0039 35.3561 17.2835 35.2685C17.7259 35.1308 18.1766 35.064 18.6607 35.064C19.4786 35.064 20.2381 35.256 20.9726 35.4438C21.2689 35.5189 21.4651 35.6524 21.6362 35.7651C21.8156 35.8861 21.9617 35.9821 22.1912 35.9946H22.2622C22.5293 35.9863 22.8005 35.8611 23.0885 35.7275C23.3138 35.6232 23.5517 35.5147 23.8104 35.4479C23.8814 35.4312 23.9482 35.4104 24.0191 35.3937C24.7369 35.2101 25.5507 35.0014 26.3895 35.0014C26.8444 35.0014 27.2534 35.0598 27.6456 35.185C27.9253 35.2727 28.1423 35.3728 28.3509 35.4688C28.5053 35.5397 28.6472 35.6065 28.8058 35.6608C28.9393 35.7067 29.0645 35.7526 29.1897 35.7985C29.8908 36.0572 30.496 36.2784 31.3264 36.341L31.6144 36.366L31.6937 36.6665C31.7521 36.8877 31.798 37.1047 31.8397 37.2967C32.015 38.0854 32.1945 38.9075 32.7245 39.3249L32.8121 39.3916L32.6201 40.0385L32.5116 40.0468C32.3781 40.0552 32.2446 40.0635 32.1068 40.0635ZM26.0974 38.1564C26.5397 38.1564 27.0155 38.2231 27.5497 38.3567C27.9962 38.4694 28.4678 38.6697 28.9644 38.8867L29.0019 38.9034C29.9159 39.2957 30.9508 39.7422 32.1027 39.7422C32.1903 39.7422 32.2821 39.7422 32.3697 39.7338L32.4365 39.5085C31.8815 39.0077 31.6979 38.1731 31.5184 37.3634C31.4767 37.1715 31.4308 36.9503 31.3682 36.7249L31.3556 36.6665H31.2972C30.425 36.5956 29.799 36.366 29.0771 36.099C28.956 36.0531 28.8267 36.0071 28.6973 35.9612C28.5262 35.9028 28.3718 35.8319 28.2132 35.7568C28.0129 35.6649 27.8084 35.569 27.5497 35.4897C27.1866 35.377 26.8068 35.3227 26.3895 35.3227C25.5924 35.3227 24.7995 35.5272 24.0984 35.7067C24.0274 35.7234 23.9607 35.7442 23.8897 35.7609C23.656 35.8194 23.4348 35.9237 23.222 36.0238C22.9048 36.1699 22.6044 36.3118 22.2705 36.3201H22.2288H22.1829C21.8532 36.3076 21.6487 36.1699 21.4526 36.0364C21.2982 35.932 21.1354 35.8235 20.8933 35.7609C20.1756 35.5773 19.4369 35.3937 18.6607 35.3937C18.21 35.3937 17.7926 35.4563 17.3837 35.5856C17.1249 35.6649 16.8537 35.7985 16.5866 35.9237C16.3779 36.0238 16.1776 36.1157 16.0023 36.1782C15.1092 36.4996 14.4791 36.6707 13.6945 36.6707C13.6194 36.6707 13.5485 36.6707 13.4733 36.6707H13.4233L13.4107 36.7166L13.3899 36.8501H13.3774C13.3398 37.0004 13.3064 37.1464 13.2772 37.2883L13.2605 37.3634C13.0811 38.1731 12.8974 39.0077 12.3424 39.5085L12.4092 39.7338C12.4968 39.738 12.5886 39.7422 12.6762 39.7422C13.8281 39.7422 14.863 39.2957 15.7811 38.8992H15.7937C16.3028 38.678 16.7785 38.4694 17.2334 38.3567C17.7676 38.2231 18.2433 38.1564 18.6857 38.1564C19.4953 38.1564 20.0754 38.3734 20.6889 38.6071C20.7473 38.6279 20.8099 38.653 20.8683 38.6738C21.39 38.87 21.8448 39.0411 22.3999 39.0828C22.9508 39.0411 23.4015 38.8742 23.9189 38.678C23.9815 38.653 24.04 38.6321 24.1067 38.6071C24.716 38.3775 25.2961 38.1605 26.1057 38.1605" fill="#201D1F"/>
<path d="M32.0452 38.4608C32.0786 38.5401 32.1161 38.6236 32.1579 38.707C31.173 38.9282 30.0754 38.5067 29.0697 38.0518C28.3143 37.7096 27.559 37.3674 26.8412 37.3382C26.0232 37.3048 25.2553 37.3758 24.5083 37.5552C23.7613 37.7347 23.031 38.0184 22.2798 38.394C22.2756 38.394 22.2715 38.3982 22.2631 38.4024C22.2631 38.4024 22.2631 38.4024 22.2589 38.4024H22.2506H22.2423H22.2339H22.2214H22.213H22.2005H22.1964C22.1964 38.4024 22.1963 38.4024 22.188 38.4024H22.1838C22.1838 38.4024 22.1797 38.3982 22.1755 38.3982C21.4243 38.0184 20.6898 37.7388 19.9428 37.5594C19.1916 37.3799 18.4279 37.3048 17.61 37.3424C16.888 37.3758 16.1994 37.718 15.5192 38.056C14.6261 38.4984 13.6621 38.8865 12.6855 38.6611L12.8024 38.4149C13.6871 38.6152 14.5552 38.2354 15.4023 37.8139C16.1076 37.4634 16.8212 37.1128 17.5974 37.0753C18.4404 37.0335 19.2292 37.117 20.0054 37.3006C20.7566 37.4801 21.4911 37.7639 22.2464 38.1395C22.9976 37.7639 23.7363 37.4801 24.4833 37.3006C25.2553 37.117 26.0482 37.0377 26.8912 37.0753C27.6591 37.1128 28.4395 37.4634 29.2199 37.8139C30.1839 38.248 31.1855 38.6695 32.0869 38.4691" fill="#201D1F"/>
<path d="M22.3201 36.0611H22.0488V38.156H22.3201V36.0611Z" fill="#201D1F"/>
<path d="M7.8949 15.5328C7.03939 15.128 6.61372 14.9235 5.75821 14.5145C5.59963 14.8567 5.52033 15.0278 5.37427 15.3826C5.19482 15.3075 5.10718 15.2699 4.92773 15.199C5.33254 14.2224 5.56207 13.7634 6.05868 12.8912C6.22561 12.9871 6.30908 13.0372 6.476 13.1332C6.29238 13.4504 6.20474 13.6131 6.03782 13.9428C6.87664 14.381 7.29813 14.598 8.13695 15.032C8.03679 15.2282 7.98672 15.3283 7.8949 15.5328Z" fill="#201D1F"/>
<path d="M6.26758 12.5364C6.39695 12.3194 6.46372 12.2109 6.60144 12.0022C7.11892 12.3444 7.37349 12.5113 7.89097 12.8536C8.09546 12.9913 8.23317 13.0706 8.29994 13.0998C8.40845 13.1457 8.52113 13.1499 8.62546 13.1165C8.73396 13.0831 8.82994 13.0038 8.91758 12.8786C9.00522 12.7534 9.04695 12.6407 9.03861 12.5364C9.03026 12.4321 8.9927 12.3444 8.92593 12.2735C8.85498 12.2025 8.73396 12.0982 8.55451 11.9605C8.04955 11.5807 7.79916 11.3887 7.29419 11.009C7.44026 10.8087 7.51538 10.7127 7.66978 10.5207C8.13719 10.8963 8.37089 11.0883 8.83412 11.4639C9.1012 11.6809 9.28065 11.8436 9.37246 11.9521C9.46428 12.0648 9.52687 12.1817 9.55609 12.3027C9.5853 12.4237 9.5853 12.5531 9.55609 12.6908C9.52687 12.8285 9.45176 12.9788 9.33491 13.1499C9.19302 13.3543 9.06365 13.4962 8.93845 13.5713C8.81743 13.6465 8.69223 13.6924 8.56286 13.7049C8.43766 13.7174 8.32081 13.7049 8.21231 13.6673C8.05372 13.6131 7.84089 13.5046 7.56545 13.3376C7.04797 13.0205 6.78923 12.8577 6.27175 12.5406" fill="#201D1F"/>
<path d="M10.6145 11.4601C9.92174 10.8132 9.57536 10.4919 8.87843 9.84501C8.64473 10.0996 8.53205 10.2289 8.3067 10.496C8.16063 10.3708 8.08552 10.3082 7.93945 10.183C8.55292 9.44855 8.87843 9.10217 9.56702 8.46784C9.69639 8.60973 9.76316 8.68068 9.89253 8.82257C9.64213 9.05209 9.52111 9.17312 9.28323 9.41517C9.9593 10.0829 10.2932 10.4167 10.9692 11.0845C10.8273 11.2305 10.7564 11.3056 10.6187 11.4559" fill="#201D1F"/>
<path d="M12.7558 9.53164C11.8836 8.75542 11.4329 8.384 10.498 7.66621C10.6858 7.51597 10.7777 7.44085 10.9696 7.29896C11.5831 7.82062 11.8836 8.08771 12.4678 8.6344C12.1632 7.88739 12.0213 7.50762 11.7542 6.73975C11.9837 6.58534 12.0964 6.51022 12.3301 6.36416C12.9269 6.93589 13.2148 7.22802 13.774 7.82479C13.5028 7.05692 13.3776 6.67298 13.1397 5.88841C13.3442 5.77573 13.4444 5.72148 13.6488 5.61715C13.9326 6.75644 14.0912 7.31983 14.4501 8.42991C14.2707 8.53007 14.1788 8.58432 13.9994 8.69282C13.3859 8.06267 13.0729 7.75802 12.4219 7.16125C12.7057 7.99589 12.8559 8.40904 13.1856 9.22283C13.0103 9.34385 12.9227 9.40645 12.7474 9.53582" fill="#201D1F"/>
<path d="M13.9121 5.48385C14.1166 5.38369 14.2209 5.33361 14.4296 5.23763C14.6925 5.79684 14.8219 6.08062 15.0806 6.63983C15.1849 6.86101 15.2559 7.00291 15.2976 7.0655C15.3644 7.16149 15.452 7.22409 15.5564 7.25747C15.6607 7.29086 15.7734 7.27834 15.9027 7.22409C16.0321 7.16983 16.1198 7.09889 16.1615 7.01125C16.2032 6.92361 16.2157 6.8318 16.1949 6.73582C16.174 6.63983 16.1198 6.48542 16.0363 6.27676C15.8068 5.68834 15.6899 5.39621 15.4562 4.80778C15.669 4.72432 15.7775 4.68676 15.9904 4.61164C16.1949 5.17503 16.295 5.45881 16.4995 6.02219C16.6164 6.34353 16.6831 6.57724 16.7082 6.71913C16.729 6.86102 16.7249 6.99039 16.6915 7.10724C16.6581 7.22409 16.5955 7.32842 16.5079 7.4244C16.4161 7.52039 16.2867 7.60385 16.1114 7.6748C15.8986 7.76243 15.7275 7.80417 15.5939 7.79582C15.4604 7.78747 15.3352 7.75409 15.2309 7.69566C15.1223 7.63724 15.0347 7.56212 14.9638 7.47031C14.8594 7.34094 14.7384 7.1281 14.5965 6.84432C14.3253 6.3018 14.1875 6.02637 13.9163 5.48385" fill="#201D1F"/>
<path d="M17.4428 7.13638C17.0922 6.05134 16.917 5.50882 16.5664 4.42377C17.0213 4.27771 17.2508 4.21511 17.7182 4.09826C18.0103 4.02732 18.2315 4.00228 18.3734 4.02732C18.5153 4.04818 18.6405 4.11913 18.7448 4.23181C18.8492 4.34448 18.9201 4.48637 18.9493 4.64913C18.9911 4.85779 18.966 5.04141 18.8784 5.20417C18.7949 5.36275 18.4318 5.56724 18.4318 5.56724C18.4318 5.57559 18.6655 5.67157 18.7532 5.74252C18.8408 5.81346 18.9702 5.94283 19.1288 6.13897C19.2915 6.33512 19.3708 6.4311 19.5252 6.63142C19.2957 6.67315 19.183 6.69401 18.9577 6.73992C18.7699 6.52708 18.6697 6.41858 18.4694 6.21409C18.2941 6.03047 18.1731 5.91362 18.1105 5.87189C18.0479 5.82598 17.9895 5.80094 17.9311 5.79677C17.8726 5.78842 17.785 5.80094 17.6723 5.83433C17.6306 5.84685 17.6139 5.85102 17.5722 5.86354C17.7057 6.31842 17.7725 6.54795 17.9018 7.00701C17.714 7.05709 17.6222 7.0863 17.4386 7.14472M17.4428 5.42535C17.593 5.38362 17.6681 5.36275 17.8225 5.32102C18.0688 5.25425 18.2232 5.20834 18.2774 5.17078C18.3359 5.13322 18.3734 5.08315 18.3943 5.02055C18.4193 4.95795 18.4193 4.88283 18.4026 4.79937C18.3818 4.70755 18.34 4.63661 18.2774 4.58653C18.219 4.54062 18.1397 4.51559 18.0479 4.52393C18.002 4.52393 17.8726 4.55314 17.6556 4.61157C17.4887 4.6533 17.4052 4.67834 17.2383 4.72425C17.3218 5.00385 17.3593 5.14157 17.4428 5.42118" fill="#201D1F"/>
<path d="M19.776 6.5858C19.5882 5.4632 19.4964 4.89981 19.3086 3.77304C19.5339 3.73548 19.6466 3.72296 19.8678 3.68958C20.0222 4.82052 20.0973 5.38391 20.2476 6.51486C20.0556 6.53989 19.9596 6.55241 19.7718 6.5858" fill="#201D1F"/>
<path d="M21.6319 6.3939C21.5776 5.25461 21.5526 4.68705 21.4941 3.54775C21.7237 3.53941 21.8363 3.53523 22.0617 3.53106C22.07 3.9776 22.0742 4.20295 22.0826 4.64949C22.4999 4.64114 22.7086 4.64949 23.1259 4.66201C23.1426 4.21547 23.1551 3.99012 23.1718 3.54358C23.3971 3.55193 23.514 3.56027 23.7393 3.57696C23.6601 4.71208 23.6183 5.27965 23.539 6.41894C23.3471 6.40642 23.2511 6.40225 23.0591 6.3939C23.08 5.89728 23.0883 5.64689 23.1092 5.15027C22.7044 5.13358 22.4999 5.13358 22.0951 5.13776C22.1034 5.63437 22.1076 5.88476 22.116 6.38555C21.924 6.38555 21.828 6.38973 21.636 6.39807" fill="#201D1F"/>
<path d="M26.157 6.80705C25.9525 6.76115 25.8482 6.73611 25.6437 6.69437C25.6145 6.42311 25.5978 6.28957 25.5644 6.01831C25.1721 5.94736 24.9759 5.91398 24.5837 5.8639C24.4668 6.11012 24.4126 6.23532 24.3041 6.48154C24.0996 6.4565 23.9994 6.44815 23.7949 6.43146C24.2623 5.32555 24.5336 4.78303 25.1304 3.71468C25.3682 3.74807 25.4851 3.76894 25.723 3.80649C25.9692 5.00421 26.0526 5.60516 26.1611 6.80288M25.4934 5.51335C25.4308 5.07516 25.3933 4.85398 25.314 4.41161C25.1011 4.80807 25.001 5.00421 24.8048 5.40484C25.0803 5.4424 25.218 5.46327 25.4934 5.51335Z" fill="#201D1F"/>
<path d="M26.4062 6.86921C26.6942 5.7633 26.8361 5.21244 27.1199 4.10653C27.3327 4.16078 27.4412 4.18999 27.654 4.24842C27.8877 5.10393 27.9796 5.53378 28.1173 6.38929C28.3718 5.67149 28.5012 5.31259 28.7558 4.5948C28.9561 4.66574 29.0521 4.69913 29.2524 4.77425C28.8392 5.83842 28.6348 6.3726 28.2174 7.43677C28.038 7.37 27.9462 7.33244 27.7626 7.26984C27.6457 6.43937 27.5622 6.02622 27.3536 5.19574C27.1491 5.90937 27.0448 6.26827 26.8403 6.98189C26.6692 6.93181 26.5815 6.91094 26.4062 6.86504" fill="#201D1F"/>
<path d="M29.8154 4.99982C30.1994 5.1584 30.3913 5.24604 30.7711 5.42966C30.9839 5.53399 31.1342 5.62998 31.2302 5.71761C31.3553 5.83864 31.4388 5.9847 31.4805 6.15163C31.5223 6.31856 31.5223 6.49801 31.4805 6.68163C31.443 6.86943 31.3553 7.07809 31.2176 7.31179C31.1008 7.51628 30.9756 7.67486 30.8462 7.79588C30.6876 7.94612 30.5249 8.04628 30.3621 8.1047C30.2411 8.15061 30.1034 8.16313 29.949 8.14226C29.8363 8.12557 29.6986 8.07966 29.5358 8.00037C29.2061 7.84179 29.0392 7.76667 28.7012 7.62478C29.1477 6.57313 29.3731 6.0473 29.8196 4.99564M30.1409 5.66336C29.8238 6.34777 29.6652 6.69415 29.348 7.37856C29.4857 7.44116 29.5525 7.47455 29.6861 7.53714C29.8113 7.59557 29.9072 7.63313 29.974 7.64565C30.0575 7.66234 30.1368 7.65817 30.2119 7.63313C30.287 7.60809 30.3663 7.54966 30.4581 7.45368C30.5499 7.3577 30.6501 7.21163 30.7544 7.01966C30.8587 6.82769 30.9255 6.66911 30.9464 6.54809C30.9672 6.42706 30.9672 6.31856 30.938 6.23092C30.9088 6.14328 30.8504 6.06399 30.7711 5.99305C30.7085 5.94297 30.575 5.86368 30.3705 5.76769C30.2787 5.72596 30.2369 5.70509 30.1451 5.66336" fill="#201D1F"/>
<path d="M32.6655 10.02C32.4986 9.88233 32.4151 9.81139 32.244 9.68201C32.3358 9.42327 32.3776 9.2939 32.461 9.03516C32.1355 8.78894 31.9686 8.67209 31.6264 8.45091C31.4136 8.62201 31.3092 8.70965 31.1006 8.88493C30.9253 8.77225 30.8377 8.718 30.6582 8.60949C31.568 7.82075 32.0562 7.44933 33.0662 6.7524C33.2706 6.89012 33.3708 6.96107 33.5711 7.10713C33.2748 8.30485 33.0912 8.8891 32.6655 10.02ZM32.6155 8.54689C32.749 8.12122 32.8116 7.90422 32.9326 7.4702C32.5654 7.72894 32.3859 7.86666 32.0312 8.13792C32.2691 8.2965 32.3859 8.37996 32.6155 8.54689Z" fill="#201D1F"/>
<path d="M33.1211 10.4127C33.4424 10.0538 33.601 9.87431 33.9224 9.51541C34.0726 8.76006 34.1268 8.37195 34.2061 7.59155C34.4231 7.76266 34.5275 7.85029 34.7361 8.02974C34.6527 8.5514 34.5984 8.81014 34.4857 9.32345C34.9782 9.16486 35.2286 9.08974 35.7419 8.96455C35.938 9.16069 36.034 9.26085 36.2218 9.46116C35.4414 9.59471 35.0616 9.67817 34.3188 9.88683C33.9891 10.2374 33.8222 10.4085 33.4925 10.7549C33.3464 10.6171 33.2713 10.5462 33.1253 10.4127" fill="#201D1F"/>
<path d="M35.5397 13.167C35.4103 12.9792 35.3435 12.8832 35.2058 12.6996C35.3602 12.4701 35.4312 12.3532 35.5814 12.1195C35.3185 11.7773 35.1849 11.6145 34.9053 11.2932C34.6549 11.4017 34.5298 11.456 34.2794 11.5686C34.1333 11.4059 34.0623 11.3266 33.9121 11.1722C35.0013 10.6547 35.5689 10.4252 36.7374 10.0371C36.9043 10.2332 36.9878 10.3334 37.1464 10.5337C36.5621 11.6312 36.2408 12.1612 35.5438 13.1628M35.8527 11.6813C36.0905 11.2974 36.2074 11.1012 36.4286 10.7048C36.0029 10.855 35.7942 10.9343 35.3811 11.1012C35.5731 11.3266 35.669 11.4434 35.8568 11.6813" fill="#201D1F"/>
<path d="M35.7053 13.4047C36.6527 12.7662 37.1242 12.4449 38.0632 11.8022C38.2009 12.0067 38.2635 12.1068 38.3929 12.3155C38.0215 13.1585 37.817 13.5675 37.3663 14.3437C38.0382 13.9806 38.372 13.8012 39.0398 13.4381C39.1524 13.6509 39.2067 13.7553 39.3152 13.9764C38.2969 14.4856 37.7878 14.7402 36.7695 15.2493C36.6694 15.049 36.6193 14.9488 36.515 14.7568C36.9615 14.014 37.1701 13.6259 37.5416 12.8205C36.9156 13.2211 36.5984 13.4214 35.9683 13.8179C35.8639 13.6468 35.8097 13.5633 35.7012 13.4005" fill="#201D1F"/>
<path d="M37.0159 15.7709C38.055 15.2993 38.5725 15.0614 39.6075 14.5898C39.716 14.8319 39.7702 14.9529 39.8704 15.2033C38.8187 15.6415 38.2929 15.8585 37.2371 16.2925C37.1494 16.0839 37.1035 15.9795 37.0117 15.775" fill="#201D1F"/>
<path d="M21.5777 31.2868C21.7989 31.0698 22.6043 31.0865 22.8422 31.2868C23.1051 31.5038 23.0425 32.6139 23.0425 32.6139C23.0425 32.6139 23.5057 33.2065 23.4932 33.4402C23.4682 33.8826 22.6335 34.6755 22.1745 34.6755C21.7112 34.6755 20.8766 33.8617 20.8557 33.411C20.8432 33.169 21.3231 32.5513 21.3231 32.5513C21.3231 32.5513 21.344 31.5164 21.5819 31.2868M21.5985 32.6139C21.5985 32.6139 21.2689 33.1231 21.2772 33.3234C21.2939 33.6948 21.8656 34.3625 22.1828 34.3667C22.4958 34.3667 23.0717 33.7157 23.0884 33.3484C23.0967 33.1564 22.7796 32.6682 22.7796 32.6682C22.7796 32.6682 22.8213 31.7584 22.646 31.5748C22.4833 31.4079 21.9324 31.3953 21.778 31.5748C21.6152 31.7626 21.6027 32.6181 21.6027 32.6181" fill="#201D1F"/>
<path fill-rule="evenodd" clip-rule="evenodd" d="M23.2484 25.8787C22.8561 25.2486 22.468 24.5266 22.1967 23.6669C21.8629 24.5475 22.0549 25.4113 22.2218 26.15C22.4096 26.993 22.6099 27.8485 22.1675 29.1672C22.0089 29.6513 21.5875 29.3258 21.7085 29.0379C22.4471 27.3101 21.5582 25.6784 21.3371 25.1985C21.166 25.8078 20.6819 26.4964 20.4189 27.0848C20.06 27.8986 19.9182 28.9377 20.4273 29.7014C20.5233 29.8475 20.6443 29.981 20.7904 30.102C20.9072 30.198 21.0366 30.2815 21.1826 30.3608C21.2703 30.3023 21.3663 30.2481 21.4706 30.2105C21.4998 30.1938 21.5332 30.1855 21.5624 30.173C21.7544 30.1062 21.963 30.0645 22.1759 30.0645C22.4847 30.0645 22.781 30.1438 23.0356 30.2773C23.0815 30.3023 23.1274 30.3316 23.1733 30.3608C24.1039 29.8683 24.3418 28.9794 24.2291 28.1239C24.2082 27.9445 24.1707 27.7608 24.1206 27.5897C24.0705 27.4145 24.0079 27.2434 23.937 27.0848C23.7492 26.6675 23.5071 26.271 23.2526 25.8704" fill="white"/>
<path fill-rule="evenodd" clip-rule="evenodd" d="M22.4183 22.5442C22.6436 24.1717 23.182 24.7894 23.6828 25.6449C23.9415 26.0622 24.1919 26.467 24.3922 26.9094C24.3922 26.9094 24.3922 26.9136 24.3922 26.9177C24.4715 27.0972 24.5424 27.2891 24.5967 27.4811C24.6551 27.6731 24.6968 27.8776 24.7219 28.0779C24.8596 29.1504 24.5383 30.273 23.2446 30.8573L23.0943 30.924L22.9691 30.8197C22.9357 30.7905 22.9065 30.7696 22.8773 30.7488C22.8481 30.7279 22.8147 30.707 22.7772 30.6903C22.5977 30.5943 22.3932 30.5401 22.1679 30.5401C22.0135 30.5401 21.8674 30.5651 21.7297 30.6152C21.7088 30.6236 21.6879 30.6319 21.6671 30.6361C21.5586 30.6862 21.4584 30.7446 21.3666 30.8197L21.2414 30.9199L21.0912 30.8531H21.087C20.8408 30.7362 20.6279 30.6027 20.4443 30.4525C20.2607 30.3022 20.1146 30.1353 19.9936 29.9517C19.3885 29.0419 19.5346 27.84 19.9477 26.9136C20.2857 26.154 20.895 25.5239 21.0536 24.5682C21.112 24.2302 21.1746 23.8713 21.4709 24.4555C21.5127 24.539 21.5711 24.6475 21.6212 24.8186C21.4668 24.2135 21.93 22.9281 22.0969 22.4983C22.243 22.1185 22.3807 22.0017 22.4183 22.5442Z" fill="#EDC41A"/>
<path d="M23.0667 31.1122L22.8622 30.9452C22.833 30.9202 22.808 30.9035 22.7871 30.8868H22.7787C22.7787 30.8868 22.737 30.8534 22.712 30.8409L22.6953 30.8325C22.424 30.6865 22.0818 30.6614 21.7855 30.7658C21.7772 30.7658 21.7688 30.7741 21.7605 30.7741C21.7479 30.7783 21.7354 30.7825 21.7271 30.7866C21.6353 30.8284 21.5476 30.8826 21.4725 30.9452L21.268 31.108L21.0093 30.9911C20.7631 30.8784 20.5377 30.7407 20.3457 30.578C20.1579 30.4236 19.991 30.2399 19.8616 30.0438C19.3066 29.205 19.2857 28.0114 19.8032 26.8471C19.9242 26.5717 20.0828 26.3129 20.2372 26.0584C20.5127 25.6035 20.8006 25.1319 20.8966 24.5393C20.9425 24.2639 20.9926 23.9801 21.2221 23.9801C21.3139 23.9801 21.3932 24.0343 21.4642 24.1262C21.556 23.5085 21.8105 22.7907 21.9483 22.436C22.0484 22.1773 22.1444 22.0103 22.3072 22.0103C22.545 22.0103 22.5701 22.3442 22.5826 22.5278C22.7662 23.8424 23.1543 24.4725 23.5675 25.1402C23.6509 25.278 23.7386 25.4157 23.8262 25.5659C24.0599 25.9415 24.3061 26.3338 24.5023 26.7553H24.5065L24.5357 26.8262L24.5607 26.8513V26.8847C24.64 27.0683 24.7068 27.2519 24.7569 27.4355C24.8153 27.64 24.8612 27.8487 24.8862 28.0532C24.9906 28.8419 24.9196 30.2775 23.3129 30.9995L23.0709 31.108L23.0667 31.1122ZM22.9665 30.6155C22.9999 30.6406 23.0333 30.6656 23.0709 30.6948L23.1168 30.7324L23.1794 30.7032C24.5941 30.0647 24.6525 28.796 24.5607 28.0949C24.5357 27.9029 24.4939 27.711 24.4397 27.5232C24.3896 27.3479 24.327 27.1684 24.2477 26.9932L24.2018 26.9264L24.2102 26.9097C24.0224 26.4966 23.7887 26.1251 23.5424 25.7287C23.4548 25.5826 23.3713 25.4407 23.2879 25.3072C22.8747 24.6395 22.4449 23.9509 22.2529 22.5612V22.5487C22.2529 22.5487 22.2529 22.5362 22.2529 22.532C22.2529 22.5362 22.2487 22.5445 22.2446 22.5487C22.0985 22.9284 21.6311 24.2096 21.7772 24.7688L21.4642 24.8565C21.4183 24.7021 21.3682 24.6061 21.3265 24.5226C21.2972 24.4642 21.2722 24.4183 21.2513 24.3849C21.2388 24.4517 21.2221 24.531 21.2138 24.5852C21.1053 25.2362 20.8048 25.737 20.5127 26.2169C20.3583 26.4715 20.2122 26.7136 20.0995 26.9723C19.6279 28.0323 19.6363 29.1132 20.1329 29.856C20.2456 30.0313 20.3875 30.1857 20.5544 30.3192C20.7339 30.4653 20.9342 30.5905 21.1595 30.6948L21.2221 30.724L21.2722 30.6823C21.3724 30.603 21.485 30.5321 21.6102 30.4778H21.6269C21.6269 30.4778 21.6394 30.4653 21.6478 30.4653C21.6603 30.457 21.677 30.4528 21.6895 30.4486C21.8439 30.3944 22.0109 30.3651 22.1778 30.3651C22.4157 30.3651 22.6535 30.4236 22.8622 30.5362L22.8831 30.5488C22.9123 30.5655 22.9457 30.5863 22.9749 30.6072" fill="#201D1F"/>
<path d="M21.7297 24.5055C21.7297 24.5055 22.4809 26.0496 22.5685 26.8884C22.6478 27.6647 21.8132 29.2714 21.8132 29.2714C21.8132 29.2714 22.2222 27.7732 22.1679 26.9761C22.1178 26.275 21.4668 24.8644 21.4668 24.8644L21.7297 24.5097V24.5055Z" fill="#201D1F"/>
<path d="M53.2456 19.3445V10.6172H54.8265V14.6272H54.9331L58.3379 10.6172H60.2683L56.8933 14.5334L60.2981 19.3445H58.3976L55.7939 15.603L54.8265 16.7451V19.3445H53.2456ZM63.7157 19.4723C63.0595 19.4723 62.4927 19.336 62.0154 19.0632C61.541 18.7877 61.176 18.3985 60.9203 17.8956C60.6646 17.3899 60.5368 16.7948 60.5368 16.1101C60.5368 15.4368 60.6646 14.8459 60.9203 14.3374C61.1788 13.826 61.5396 13.4283 62.0027 13.1442C62.4657 12.8573 63.0098 12.7138 63.6348 12.7138C64.0382 12.7138 64.4189 12.7791 64.7768 12.9098C65.1376 13.0377 65.4558 13.2365 65.7314 13.5064C66.0098 13.7763 66.2285 14.1201 66.3876 14.5377C66.5467 14.9524 66.6262 15.4468 66.6262 16.0206V16.4936H61.2612V15.4539H65.1475C65.1447 15.1584 65.0808 14.8956 64.9558 14.6655C64.8308 14.4326 64.6561 14.2493 64.4316 14.1158C64.21 13.9823 63.9515 13.9155 63.6561 13.9155C63.3407 13.9155 63.0637 13.9922 62.8251 14.1456C62.5865 14.2962 62.4004 14.4951 62.2669 14.7422C62.1362 14.9865 62.0694 15.255 62.0666 15.5476V16.4553C62.0666 16.836 62.1362 17.1627 62.2754 17.4354C62.4146 17.7053 62.6092 17.9127 62.8592 18.0576C63.1092 18.1996 63.4018 18.2706 63.737 18.2706C63.9615 18.2706 64.1646 18.2394 64.3464 18.1769C64.5282 18.1115 64.6859 18.0164 64.8194 17.8914C64.9529 17.7664 65.0538 17.6115 65.122 17.4269L66.5623 17.5888C66.4714 17.9695 66.2981 18.3019 66.0424 18.586C65.7896 18.8672 65.4657 19.086 65.0708 19.2422C64.676 19.3956 64.2243 19.4723 63.7157 19.4723ZM67.9313 19.3445V12.799H69.4057V13.9112H69.4824C69.6188 13.5362 69.8446 13.2436 70.16 13.0334C70.4753 12.8203 70.8517 12.7138 71.2892 12.7138C71.7324 12.7138 72.106 12.8218 72.41 13.0377C72.7168 13.2507 72.9327 13.5419 73.0577 13.9112H73.1259C73.2708 13.5476 73.5151 13.2578 73.8588 13.0419C74.2054 12.8232 74.6159 12.7138 75.0904 12.7138C75.6926 12.7138 76.1841 12.9041 76.5648 13.2848C76.9455 13.6655 77.1358 14.2209 77.1358 14.951V19.3445H75.589V15.1897C75.589 14.7834 75.481 14.4865 75.2651 14.299C75.0492 14.1087 74.785 14.0135 74.4725 14.0135C74.1003 14.0135 73.8091 14.13 73.5989 14.3629C73.3915 14.5931 73.2878 14.8928 73.2878 15.2621V19.3445H71.775V15.1257C71.775 14.7877 71.6728 14.5178 71.4682 14.3161C71.2665 14.1144 71.0023 14.0135 70.6756 14.0135C70.454 14.0135 70.2523 14.0703 70.0705 14.184C69.8887 14.2948 69.7438 14.4524 69.6358 14.657C69.5279 14.8587 69.4739 15.0945 69.4739 15.3644V19.3445H67.9313ZM81.5985 19.4723C80.9423 19.4723 80.3755 19.336 79.8983 19.0632C79.4238 18.7877 79.0588 18.3985 78.8031 17.8956C78.5474 17.3899 78.4196 16.7948 78.4196 16.1101C78.4196 15.4368 78.5474 14.8459 78.8031 14.3374C79.0616 13.826 79.4224 13.4283 79.8855 13.1442C80.3485 12.8573 80.8926 12.7138 81.5176 12.7138C81.921 12.7138 82.3017 12.7791 82.6596 12.9098C83.0204 13.0377 83.3386 13.2365 83.6142 13.5064C83.8926 13.7763 84.1113 14.1201 84.2704 14.5377C84.4295 14.9524 84.5091 15.4468 84.5091 16.0206V16.4936H79.144V15.4539H83.0304C83.0275 15.1584 82.9636 14.8956 82.8386 14.6655C82.7136 14.4326 82.5389 14.2493 82.3145 14.1158C82.0929 13.9823 81.8343 13.9155 81.5389 13.9155C81.2235 13.9155 80.9466 13.9922 80.7079 14.1456C80.4693 14.2962 80.2832 14.4951 80.1497 14.7422C80.019 14.9865 79.9522 15.255 79.9494 15.5476V16.4553C79.9494 16.836 80.019 17.1627 80.1582 17.4354C80.2974 17.7053 80.492 17.9127 80.742 18.0576C80.992 18.1996 81.2846 18.2706 81.6199 18.2706C81.8443 18.2706 82.0474 18.2394 82.2292 18.1769C82.411 18.1115 82.5687 18.0164 82.7022 17.8914C82.8358 17.7664 82.9366 17.6115 83.0048 17.4269L84.4451 17.5888C84.3542 17.9695 84.1809 18.3019 83.9252 18.586C83.6724 18.8672 83.3485 19.086 82.9537 19.2422C82.5588 19.3956 82.1071 19.4723 81.5985 19.4723ZM87.3567 15.5093V19.3445H85.8141V12.799H87.2885V13.9112H87.3652C87.5158 13.5448 87.7559 13.2536 88.0854 13.0377C88.4178 12.8218 88.8283 12.7138 89.3169 12.7138C89.7686 12.7138 90.1621 12.8104 90.4973 13.0036C90.8354 13.1968 91.0968 13.4766 91.2814 13.8431C91.4689 14.2095 91.5613 14.6541 91.5584 15.1769V19.3445H90.0158V15.4155C90.0158 14.978 89.9022 14.6357 89.6749 14.3885C89.4505 14.1414 89.1394 14.0178 88.7417 14.0178C88.4718 14.0178 88.2317 14.0774 88.0215 14.1968C87.8141 14.3132 87.6507 14.4823 87.5314 14.7039C87.415 14.9254 87.3567 15.1939 87.3567 15.5093ZM96.3951 12.799V13.9922H92.6323V12.799H96.3951ZM93.5613 11.2308H95.1039V17.3757C95.1039 17.5831 95.1351 17.7422 95.1976 17.853C95.263 17.961 95.3482 18.0348 95.4533 18.0746C95.5584 18.1144 95.6749 18.1343 95.8027 18.1343C95.8993 18.1343 95.9874 18.1272 96.0669 18.1129C96.1493 18.0987 96.2118 18.086 96.2544 18.0746L96.5144 19.2806C96.432 19.309 96.3141 19.3402 96.1607 19.3743C96.0101 19.4084 95.8255 19.4283 95.6067 19.434C95.2203 19.4453 94.8723 19.3871 94.5627 19.2593C94.253 19.1286 94.0073 18.9269 93.8255 18.6541C93.6465 18.3814 93.5584 18.0405 93.5613 17.6314V11.2308ZM100.513 19.4723C99.8564 19.4723 99.2896 19.336 98.8123 19.0632C98.3379 18.7877 97.9728 18.3985 97.7172 17.8956C97.4615 17.3899 97.3336 16.7948 97.3336 16.1101C97.3336 15.4368 97.4615 14.8459 97.7172 14.3374C97.9757 13.826 98.3365 13.4283 98.7995 13.1442C99.2626 12.8573 99.8066 12.7138 100.432 12.7138C100.835 12.7138 101.216 12.7791 101.574 12.9098C101.934 13.0377 102.253 13.2365 102.528 13.5064C102.807 13.7763 103.025 14.1201 103.184 14.5377C103.344 14.9524 103.423 15.4468 103.423 16.0206V16.4936H98.0581V15.4539H101.944C101.942 15.1584 101.878 14.8956 101.753 14.6655C101.628 14.4326 101.453 14.2493 101.229 14.1158C101.007 13.9823 100.748 13.9155 100.453 13.9155C100.138 13.9155 99.8606 13.9922 99.622 14.1456C99.3833 14.2962 99.1973 14.4951 99.0637 14.7422C98.9331 14.9865 98.8663 15.255 98.8635 15.5476V16.4553C98.8635 16.836 98.9331 17.1627 99.0723 17.4354C99.2115 17.7053 99.4061 17.9127 99.6561 18.0576C99.9061 18.1996 100.199 18.2706 100.534 18.2706C100.758 18.2706 100.961 18.2394 101.143 18.1769C101.325 18.1115 101.483 18.0164 101.616 17.8914C101.75 17.7664 101.851 17.6115 101.919 17.4269L103.359 17.5888C103.268 17.9695 103.095 18.3019 102.839 18.586C102.586 18.8672 102.263 19.086 101.868 19.2422C101.473 19.3956 101.021 19.4723 100.513 19.4723ZM104.728 19.3445V12.799H106.224V13.8899H106.292C106.411 13.5121 106.616 13.2209 106.906 13.0164C107.198 12.809 107.532 12.7053 107.907 12.7053C107.992 12.7053 108.088 12.7095 108.193 12.7181C108.301 12.7237 108.39 12.7337 108.461 12.7479V14.1669C108.396 14.1442 108.292 14.1243 108.15 14.1073C108.011 14.0874 107.876 14.0774 107.745 14.0774C107.464 14.0774 107.211 14.1385 106.987 14.2607C106.765 14.38 106.59 14.5462 106.463 14.7593C106.335 14.9723 106.271 15.2181 106.271 15.4965V19.3445H104.728ZM109.486 19.3445V12.799H111.029V19.3445H109.486ZM110.262 11.8701C110.017 11.8701 109.807 11.7891 109.631 11.6272C109.455 11.4624 109.367 11.2649 109.367 11.0348C109.367 10.8019 109.455 10.6044 109.631 10.4425C109.807 10.2777 110.017 10.1953 110.262 10.1953C110.509 10.1953 110.719 10.2777 110.892 10.4425C111.068 10.6044 111.156 10.8019 111.156 11.0348C111.156 11.2649 111.068 11.4624 110.892 11.6272C110.719 11.7891 110.509 11.8701 110.262 11.8701ZM114.498 19.4766C114.084 19.4766 113.71 19.4027 113.378 19.255C113.048 19.1044 112.787 18.8828 112.594 18.5902C112.403 18.2976 112.308 17.9368 112.308 17.5078C112.308 17.1385 112.376 16.8331 112.513 16.5916C112.649 16.3502 112.835 16.157 113.071 16.0121C113.307 15.8672 113.572 15.7578 113.868 15.684C114.166 15.6073 114.474 15.5519 114.792 15.5178C115.176 15.478 115.487 15.4425 115.726 15.4112C115.964 15.3772 116.138 15.326 116.246 15.2578C116.356 15.1868 116.412 15.0774 116.412 14.9297V14.9041C116.412 14.5831 116.317 14.3345 116.126 14.1584C115.936 13.9823 115.662 13.8942 115.304 13.8942C114.926 13.8942 114.626 13.9766 114.405 14.1414C114.186 14.3061 114.038 14.5007 113.961 14.7252L112.521 14.5206C112.635 14.1229 112.822 13.7905 113.084 13.5235C113.345 13.2536 113.665 13.0519 114.042 12.9183C114.42 12.782 114.838 12.7138 115.295 12.7138C115.611 12.7138 115.925 12.7507 116.237 12.8246C116.55 12.8985 116.835 13.0206 117.094 13.1911C117.352 13.3587 117.559 13.5874 117.716 13.8772C117.875 14.1669 117.954 14.5291 117.954 14.9638V19.3445H116.471V18.4453H116.42C116.327 18.6272 116.194 18.7976 116.024 18.9567C115.856 19.1129 115.645 19.2394 115.389 19.336C115.136 19.4297 114.839 19.4766 114.498 19.4766ZM114.899 18.3431C115.209 18.3431 115.477 18.282 115.704 18.1598C115.932 18.0348 116.106 17.8701 116.229 17.6655C116.354 17.461 116.416 17.2379 116.416 16.9965V16.2252C116.368 16.2649 116.285 16.3019 116.169 16.336C116.055 16.3701 115.927 16.3999 115.785 16.4254C115.643 16.451 115.503 16.4737 115.363 16.4936C115.224 16.5135 115.104 16.5306 115.001 16.5448C114.771 16.576 114.565 16.6272 114.383 16.6982C114.202 16.7692 114.058 16.8686 113.953 16.9965C113.848 17.1215 113.795 17.2834 113.795 17.4823C113.795 17.7664 113.899 17.9808 114.106 18.1257C114.314 18.2706 114.578 18.3431 114.899 18.3431ZM121.048 15.5093V19.3445H119.506V12.799H120.98V13.9112H121.057C121.207 13.5448 121.447 13.2536 121.777 13.0377C122.109 12.8218 122.52 12.7138 123.008 12.7138C123.46 12.7138 123.854 12.8104 124.189 13.0036C124.527 13.1968 124.788 13.4766 124.973 13.8431C125.16 14.2095 125.253 14.6541 125.25 15.1769V19.3445H123.707V15.4155C123.707 14.978 123.594 14.6357 123.366 14.3885C123.142 14.1414 122.831 14.0178 122.433 14.0178C122.163 14.0178 121.923 14.0774 121.713 14.1968C121.506 14.3132 121.342 14.4823 121.223 14.7039C121.106 14.9254 121.048 15.1939 121.048 15.5093ZM129.863 19.3445V10.6172H133.135C133.806 10.6172 134.368 10.7422 134.823 10.9922C135.28 11.2422 135.626 11.586 135.858 12.0235C136.094 12.4581 136.212 12.9524 136.212 13.5064C136.212 14.0661 136.094 14.5632 135.858 14.9979C135.623 15.4326 135.275 15.7749 134.814 16.0249C134.354 16.272 133.787 16.3956 133.114 16.3956H130.945V15.0959H132.901C133.293 15.0959 133.614 15.0277 133.864 14.8914C134.114 14.755 134.299 14.5675 134.418 14.3289C134.54 14.0902 134.601 13.8161 134.601 13.5064C134.601 13.1968 134.54 12.924 134.418 12.6882C134.299 12.4524 134.113 12.2692 133.86 12.1385C133.61 12.005 133.287 11.9382 132.893 11.9382H131.444V19.3445H129.863ZM140.321 19.4723C139.665 19.4723 139.098 19.336 138.621 19.0632C138.146 18.7877 137.781 18.3985 137.526 17.8956C137.27 17.3899 137.142 16.7948 137.142 16.1101C137.142 15.4368 137.27 14.8459 137.526 14.3374C137.784 13.826 138.145 13.4283 138.608 13.1442C139.071 12.8573 139.615 12.7138 140.24 12.7138C140.644 12.7138 141.024 12.7791 141.382 12.9098C141.743 13.0377 142.061 13.2365 142.337 13.5064C142.615 13.7763 142.834 14.1201 142.993 14.5377C143.152 14.9524 143.232 15.4468 143.232 16.0206V16.4936H137.867V15.4539H141.753C141.75 15.1584 141.686 14.8956 141.561 14.6655C141.436 14.4326 141.262 14.2493 141.037 14.1158C140.816 13.9823 140.557 13.9155 140.262 13.9155C139.946 13.9155 139.669 13.9922 139.431 14.1456C139.192 14.2962 139.006 14.4951 138.872 14.7422C138.742 14.9865 138.675 15.255 138.672 15.5476V16.4553C138.672 16.836 138.742 17.1627 138.881 17.4354C139.02 17.7053 139.215 17.9127 139.465 18.0576C139.715 18.1996 140.007 18.2706 140.343 18.2706C140.567 18.2706 140.77 18.2394 140.952 18.1769C141.134 18.1115 141.291 18.0164 141.425 17.8914C141.558 17.7664 141.659 17.6115 141.727 17.4269L143.168 17.5888C143.077 17.9695 142.904 18.3019 142.648 18.586C142.395 18.8672 142.071 19.086 141.676 19.2422C141.281 19.3956 140.83 19.4723 140.321 19.4723ZM146.079 15.5093V19.3445H144.537V12.799H146.011V13.9112H146.088C146.238 13.5448 146.479 13.2536 146.808 13.0377C147.14 12.8218 147.551 12.7138 148.04 12.7138C148.491 12.7138 148.885 12.8104 149.22 13.0036C149.558 13.1968 149.819 13.4766 150.004 13.8431C150.192 14.2095 150.284 14.6541 150.281 15.1769V19.3445H148.738V15.4155C148.738 14.978 148.625 14.6357 148.398 14.3885C148.173 14.1414 147.862 14.0178 147.464 14.0178C147.194 14.0178 146.954 14.0774 146.744 14.1968C146.537 14.3132 146.373 14.4823 146.254 14.7039C146.138 14.9254 146.079 15.1939 146.079 15.5093ZM154.278 19.4595C153.764 19.4595 153.304 19.3274 152.898 19.0632C152.491 18.799 152.17 18.4155 151.934 17.9127C151.699 17.4098 151.581 16.799 151.581 16.0803C151.581 15.353 151.7 14.7394 151.939 14.2394C152.18 13.7365 152.506 13.3573 152.915 13.1016C153.324 12.8431 153.78 12.7138 154.282 12.7138C154.666 12.7138 154.981 12.7791 155.229 12.9098C155.476 13.0377 155.672 13.1925 155.817 13.3743C155.961 13.5533 156.074 13.7223 156.153 13.8814H156.217V10.6172H157.764V19.3445H156.247V18.3132H156.153C156.074 18.4723 155.959 18.6414 155.808 18.8203C155.657 18.9965 155.459 19.147 155.211 19.272C154.964 19.397 154.653 19.4595 154.278 19.4595ZM154.709 18.1939C155.035 18.1939 155.314 18.1058 155.544 17.9297C155.774 17.7507 155.949 17.5022 156.068 17.184C156.187 16.8658 156.247 16.4951 156.247 16.0718C156.247 15.6485 156.187 15.2806 156.068 14.9681C155.952 14.6556 155.778 14.4127 155.548 14.2394C155.321 14.0661 155.041 13.9794 154.709 13.9794C154.365 13.9794 154.078 14.0689 153.848 14.2479C153.618 14.4269 153.444 14.674 153.328 14.9894C153.211 15.3047 153.153 15.6655 153.153 16.0718C153.153 16.4808 153.211 16.8459 153.328 17.1669C153.447 17.4851 153.622 17.7365 153.852 17.9212C154.085 18.103 154.371 18.1939 154.709 18.1939ZM159.408 19.3445V12.799H160.95V19.3445H159.408ZM160.183 11.8701C159.939 11.8701 159.729 11.7891 159.553 11.6272C159.377 11.4624 159.289 11.2649 159.289 11.0348C159.289 10.8019 159.377 10.6044 159.553 10.4425C159.729 10.2777 159.939 10.1953 160.183 10.1953C160.431 10.1953 160.641 10.2777 160.814 10.4425C160.99 10.6044 161.078 10.8019 161.078 11.0348C161.078 11.2649 160.99 11.4624 160.814 11.6272C160.641 11.7891 160.431 11.8701 160.183 11.8701ZM164.966 19.4595C164.452 19.4595 163.991 19.3274 163.585 19.0632C163.179 18.799 162.858 18.4155 162.622 17.9127C162.386 17.4098 162.268 16.799 162.268 16.0803C162.268 15.353 162.388 14.7394 162.626 14.2394C162.868 13.7365 163.193 13.3573 163.602 13.1016C164.011 12.8431 164.467 12.7138 164.97 12.7138C165.354 12.7138 165.669 12.7791 165.916 12.9098C166.163 13.0377 166.359 13.1925 166.504 13.3743C166.649 13.5533 166.761 13.7223 166.841 13.8814H166.905V10.6172H168.452V19.3445H166.934V18.3132H166.841C166.761 18.4723 166.646 18.6414 166.496 18.8203C166.345 18.9965 166.146 19.147 165.899 19.272C165.652 19.397 165.341 19.4595 164.966 19.4595ZM165.396 18.1939C165.723 18.1939 166.001 18.1058 166.231 17.9297C166.461 17.7507 166.636 17.5022 166.756 17.184C166.875 16.8658 166.934 16.4951 166.934 16.0718C166.934 15.6485 166.875 15.2806 166.756 14.9681C166.639 14.6556 166.466 14.4127 166.236 14.2394C166.008 14.0661 165.729 13.9794 165.396 13.9794C165.052 13.9794 164.765 14.0689 164.535 14.2479C164.305 14.4269 164.132 14.674 164.015 14.9894C163.899 15.3047 163.841 15.6655 163.841 16.0718C163.841 16.4808 163.899 16.8459 164.015 17.1669C164.135 17.4851 164.309 17.7365 164.54 17.9212C164.773 18.103 165.058 18.1939 165.396 18.1939ZM170.095 19.3445V12.799H171.638V19.3445H170.095ZM170.871 11.8701C170.627 11.8701 170.416 11.7891 170.24 11.6272C170.064 11.4624 169.976 11.2649 169.976 11.0348C169.976 10.8019 170.064 10.6044 170.24 10.4425C170.416 10.2777 170.627 10.1953 170.871 10.1953C171.118 10.1953 171.328 10.2777 171.502 10.4425C171.678 10.6044 171.766 10.8019 171.766 11.0348C171.766 11.2649 171.678 11.4624 171.502 11.6272C171.328 11.7891 171.118 11.8701 170.871 11.8701ZM174.631 17.2905L174.626 15.4283H174.873L177.226 12.799H179.028L176.135 16.0206H175.815L174.631 17.2905ZM173.224 19.3445V10.6172H174.767V19.3445H173.224ZM177.332 19.3445L175.202 16.3658L176.241 15.2791L179.177 19.3445H177.332ZM181.94 19.4766C181.525 19.4766 181.151 19.4027 180.819 19.255C180.49 19.1044 180.228 18.8828 180.035 18.5902C179.845 18.2976 179.749 17.9368 179.749 17.5078C179.749 17.1385 179.818 16.8331 179.954 16.5916C180.09 16.3502 180.276 16.157 180.512 16.0121C180.748 15.8672 181.014 15.7578 181.309 15.684C181.607 15.6073 181.916 15.5519 182.234 15.5178C182.617 15.478 182.928 15.4425 183.167 15.4112C183.406 15.3772 183.579 15.326 183.687 15.2578C183.798 15.1868 183.853 15.0774 183.853 14.9297V14.9041C183.853 14.5831 183.758 14.3345 183.568 14.1584C183.377 13.9823 183.103 13.8942 182.745 13.8942C182.367 13.8942 182.068 13.9766 181.846 14.1414C181.627 14.3061 181.48 14.5007 181.403 14.7252L179.963 14.5206C180.076 14.1229 180.264 13.7905 180.525 13.5235C180.786 13.2536 181.106 13.0519 181.484 12.9183C181.862 12.782 182.279 12.7138 182.737 12.7138C183.052 12.7138 183.366 12.7507 183.678 12.8246C183.991 12.8985 184.276 13.0206 184.535 13.1911C184.794 13.3587 185.001 13.5874 185.157 13.8772C185.316 14.1669 185.396 14.5291 185.396 14.9638V19.3445H183.913V18.4453H183.862C183.768 18.6272 183.636 18.7976 183.465 18.9567C183.298 19.1129 183.086 19.2394 182.83 19.336C182.578 19.4297 182.281 19.4766 181.94 19.4766ZM182.34 18.3431C182.65 18.3431 182.919 18.282 183.146 18.1598C183.373 18.0348 183.548 17.8701 183.67 17.6655C183.795 17.461 183.857 17.2379 183.857 16.9965V16.2252C183.809 16.2649 183.727 16.3019 183.61 16.336C183.497 16.3701 183.369 16.3999 183.227 16.4254C183.085 16.451 182.944 16.4737 182.805 16.4936C182.666 16.5135 182.545 16.5306 182.443 16.5448C182.213 16.576 182.007 16.6272 181.825 16.6982C181.643 16.7692 181.499 16.8686 181.394 16.9965C181.289 17.1215 181.237 17.2834 181.237 17.4823C181.237 17.7664 181.34 17.9808 181.548 18.1257C181.755 18.2706 182.019 18.3431 182.34 18.3431ZM188.49 15.5093V19.3445H186.947V12.799H188.421V13.9112H188.498C188.649 13.5448 188.889 13.2536 189.218 13.0377C189.551 12.8218 189.961 12.7138 190.45 12.7138C190.901 12.7138 191.295 12.8104 191.63 13.0036C191.968 13.1968 192.23 13.4766 192.414 13.8431C192.602 14.2095 192.694 14.6541 192.691 15.1769V19.3445H191.149V15.4155C191.149 14.978 191.035 14.6357 190.808 14.3885C190.583 14.1414 190.272 14.0178 189.874 14.0178C189.605 14.0178 189.365 14.0774 189.154 14.1968C188.947 14.3132 188.784 14.4823 188.664 14.7039C188.548 14.9254 188.49 15.1939 188.49 15.5093ZM196.921 11.9425V10.6172H203.884V11.9425H201.186V19.3445H199.618V11.9425H196.921ZM205.158 19.3445V12.799H206.7V19.3445H205.158ZM205.933 11.8701C205.689 11.8701 205.479 11.7891 205.303 11.6272C205.127 11.4624 205.039 11.2649 205.039 11.0348C205.039 10.8019 205.127 10.6044 205.303 10.4425C205.479 10.2777 205.689 10.1953 205.933 10.1953C206.181 10.1953 206.391 10.2777 206.564 10.4425C206.74 10.6044 206.828 10.8019 206.828 11.0348C206.828 11.2649 206.74 11.4624 206.564 11.6272C206.391 11.7891 206.181 11.8701 205.933 11.8701ZM209.829 15.5093V19.3445H208.287V12.799H209.761V13.9112H209.838C209.988 13.5448 210.229 13.2536 210.558 13.0377C210.89 12.8218 211.301 12.7138 211.79 12.7138C212.241 12.7138 212.635 12.8104 212.97 13.0036C213.308 13.1968 213.569 13.4766 213.754 13.8431C213.942 14.2095 214.034 14.6541 214.031 15.1769V19.3445H212.488V15.4155C212.488 14.978 212.375 14.6357 212.148 14.3885C211.923 14.1414 211.612 14.0178 211.214 14.0178C210.944 14.0178 210.704 14.0774 210.494 14.1968C210.287 14.3132 210.123 14.4823 210.004 14.7039C209.888 14.9254 209.829 15.1939 209.829 15.5093ZM218.446 21.9354C217.892 21.9354 217.416 21.8601 217.018 21.7095C216.621 21.5618 216.301 21.3629 216.059 21.1129C215.818 20.8629 215.65 20.586 215.557 20.282L216.946 19.9453C217.008 20.0732 217.099 20.1996 217.219 20.3246C217.338 20.4524 217.498 20.5576 217.7 20.6399C217.905 20.7252 218.162 20.7678 218.471 20.7678C218.909 20.7678 219.271 20.6612 219.558 20.4482C219.845 20.2379 219.988 19.8914 219.988 19.4084V18.1683H219.912C219.832 18.3274 219.716 18.4908 219.562 18.6584C219.412 18.826 219.211 18.9666 218.961 19.0803C218.714 19.1939 218.403 19.2507 218.028 19.2507C217.525 19.2507 217.069 19.1328 216.66 18.897C216.254 18.6584 215.93 18.3033 215.689 17.8317C215.45 17.3573 215.331 16.7635 215.331 16.0504C215.331 15.3317 215.45 14.7252 215.689 14.2308C215.93 13.7337 216.256 13.3573 216.665 13.1016C217.074 12.8431 217.53 12.7138 218.032 12.7138C218.416 12.7138 218.731 12.7791 218.979 12.9098C219.229 13.0377 219.427 13.1925 219.575 13.3743C219.723 13.5533 219.835 13.7223 219.912 13.8814H219.997V12.799H221.518V19.451C221.518 20.0107 221.385 20.4737 221.118 20.8402C220.851 21.2067 220.486 21.4808 220.023 21.6627C219.559 21.8445 219.034 21.9354 218.446 21.9354ZM218.459 18.0405C218.785 18.0405 219.064 17.961 219.294 17.8019C219.524 17.6428 219.699 17.4141 219.818 17.1158C219.937 16.8175 219.997 16.4595 219.997 16.0419C219.997 15.63 219.937 15.2692 219.818 14.9595C219.702 14.6499 219.528 14.4098 219.298 14.2394C219.071 14.0661 218.791 13.9794 218.459 13.9794C218.115 13.9794 217.828 14.0689 217.598 14.2479C217.368 14.4269 217.194 14.6726 217.078 14.9851C216.961 15.2948 216.903 15.647 216.903 16.0419C216.903 16.4425 216.961 16.7933 217.078 17.0945C217.197 17.3928 217.372 17.6257 217.602 17.7933C217.835 17.9581 218.121 18.0405 218.459 18.0405ZM225.946 21.9354C225.392 21.9354 224.916 21.8601 224.518 21.7095C224.121 21.5618 223.801 21.3629 223.559 21.1129C223.318 20.8629 223.15 20.586 223.057 20.282L224.446 19.9453C224.508 20.0732 224.599 20.1996 224.719 20.3246C224.838 20.4524 224.998 20.5576 225.2 20.6399C225.405 20.7252 225.662 20.7678 225.971 20.7678C226.409 20.7678 226.771 20.6612 227.058 20.4482C227.345 20.2379 227.488 19.8914 227.488 19.4084V18.1683H227.412C227.332 18.3274 227.216 18.4908 227.062 18.6584C226.912 18.826 226.711 18.9666 226.461 19.0803C226.214 19.1939 225.903 19.2507 225.528 19.2507C225.025 19.2507 224.569 19.1328 224.16 18.897C223.754 18.6584 223.43 18.3033 223.189 17.8317C222.95 17.3573 222.831 16.7635 222.831 16.0504C222.831 15.3317 222.95 14.7252 223.189 14.2308C223.43 13.7337 223.756 13.3573 224.165 13.1016C224.574 12.8431 225.03 12.7138 225.532 12.7138C225.916 12.7138 226.231 12.7791 226.479 12.9098C226.729 13.0377 226.927 13.1925 227.075 13.3743C227.223 13.5533 227.335 13.7223 227.412 13.8814H227.497V12.799H229.018V19.451C229.018 20.0107 228.885 20.4737 228.618 20.8402C228.351 21.2067 227.986 21.4808 227.523 21.6627C227.059 21.8445 226.534 21.9354 225.946 21.9354ZM225.959 18.0405C226.285 18.0405 226.564 17.961 226.794 17.8019C227.024 17.6428 227.199 17.4141 227.318 17.1158C227.437 16.8175 227.497 16.4595 227.497 16.0419C227.497 15.63 227.437 15.2692 227.318 14.9595C227.202 14.6499 227.028 14.4098 226.798 14.2394C226.571 14.0661 226.291 13.9794 225.959 13.9794C225.615 13.9794 225.328 14.0689 225.098 14.2479C224.868 14.4269 224.694 14.6726 224.578 14.9851C224.461 15.2948 224.403 15.647 224.403 16.0419C224.403 16.4425 224.461 16.7933 224.578 17.0945C224.697 17.3928 224.872 17.6257 225.102 17.7933C225.335 17.9581 225.621 18.0405 225.959 18.0405ZM230.599 19.3445V12.799H232.142V19.3445H230.599ZM231.375 11.8701C231.131 11.8701 230.92 11.7891 230.744 11.6272C230.568 11.4624 230.48 11.2649 230.48 11.0348C230.48 10.8019 230.568 10.6044 230.744 10.4425C230.92 10.2777 231.131 10.1953 231.375 10.1953C231.622 10.1953 231.832 10.2777 232.006 10.4425C232.182 10.6044 232.27 10.8019 232.27 11.0348C232.27 11.2649 232.182 11.4624 232.006 11.6272C231.832 11.7891 231.622 11.8701 231.375 11.8701ZM235.539 18.1513L235.484 18.6201C235.444 18.978 235.373 19.3416 235.271 19.711C235.171 20.0831 235.066 20.4254 234.955 20.7379C234.845 21.0504 234.755 21.2962 234.687 21.4752H233.647C233.687 21.3019 233.741 21.0661 233.809 20.7678C233.88 20.4695 233.948 20.1343 234.014 19.7621C234.079 19.3899 234.123 19.0121 234.146 18.6286L234.176 18.1513H235.539ZM57.9885 28.0164C57.9487 27.6442 57.7811 27.3544 57.4856 27.147C57.193 26.9397 56.8123 26.836 56.3436 26.836C56.014 26.836 55.7314 26.8857 55.4956 26.9851C55.2598 27.0845 55.0794 27.2195 54.9544 27.3899C54.8294 27.5604 54.7654 27.755 54.7626 27.9737C54.7626 28.1556 54.8038 28.3132 54.8862 28.4468C54.9714 28.5803 55.0865 28.6939 55.2314 28.7877C55.3762 28.8786 55.5368 28.9553 55.7129 29.0178C55.889 29.0803 56.0666 29.1328 56.2456 29.1754L57.0637 29.38C57.3933 29.4567 57.71 29.5604 58.014 29.6911C58.3208 29.8218 58.595 29.9865 58.8365 30.1854C59.0808 30.3843 59.274 30.6243 59.416 30.9056C59.5581 31.1868 59.6291 31.5164 59.6291 31.8942C59.6291 32.4056 59.4984 32.8558 59.237 33.2451C58.9757 33.6314 58.5978 33.934 58.1035 34.1527C57.612 34.3686 57.0169 34.4766 56.318 34.4766C55.639 34.4766 55.0495 34.3715 54.5495 34.1612C54.0524 33.951 53.6632 33.6442 53.3819 33.2408C53.1035 32.8374 52.9529 32.3459 52.9302 31.7664H54.4856C54.5083 32.0703 54.6021 32.3232 54.7669 32.5249C54.9316 32.7266 55.1461 32.8772 55.4103 32.9766C55.6774 33.076 55.9757 33.1257 56.3052 33.1257C56.649 33.1257 56.9501 33.0746 57.2086 32.9723C57.47 32.8672 57.6745 32.7223 57.8223 32.5377C57.97 32.3502 58.0453 32.1314 58.0481 31.8814C58.0453 31.6541 57.9785 31.4666 57.8478 31.3189C57.7172 31.1683 57.5339 31.0433 57.2981 30.9439C57.0652 30.8416 56.7924 30.7507 56.4799 30.6712L55.487 30.4155C54.7683 30.2308 54.2001 29.951 53.7825 29.576C53.3677 29.1982 53.1603 28.6968 53.1603 28.0718C53.1603 27.5576 53.2995 27.1073 53.5779 26.7209C53.8592 26.3345 54.2413 26.0348 54.7243 25.8218C55.2072 25.6058 55.7541 25.4979 56.3649 25.4979C56.9842 25.4979 57.5268 25.6058 57.9927 25.8218C58.4615 26.0348 58.8294 26.3317 59.0964 26.7124C59.3635 27.0902 59.5012 27.5249 59.5098 28.0164H57.9885ZM62.8539 34.4766C62.4391 34.4766 62.0655 34.4027 61.7331 34.255C61.4036 34.1044 61.1422 33.8828 60.949 33.5902C60.7587 33.2976 60.6635 32.9368 60.6635 32.5078C60.6635 32.1385 60.7317 31.8331 60.8681 31.5916C61.0044 31.3502 61.1905 31.157 61.4263 31.0121C61.6621 30.8672 61.9277 30.7578 62.2232 30.684C62.5215 30.6073 62.8297 30.5519 63.1479 30.5178C63.5314 30.478 63.8425 30.4425 64.0811 30.4112C64.3198 30.3772 64.4931 30.326 64.601 30.2578C64.7118 30.1868 64.7672 30.0774 64.7672 29.9297V29.9041C64.7672 29.5831 64.6721 29.3345 64.4817 29.1584C64.2914 28.9823 64.0172 28.8942 63.6593 28.8942C63.2814 28.8942 62.9817 28.9766 62.7601 29.1414C62.5414 29.3061 62.3936 29.5007 62.3169 29.7252L60.8766 29.5206C60.9902 29.1229 61.1777 28.7905 61.4391 28.5235C61.7005 28.2536 62.0201 28.0519 62.3979 27.9183C62.7757 27.782 63.1934 27.7138 63.6507 27.7138C63.9661 27.7138 64.28 27.7507 64.5925 27.8246C64.905 27.8985 65.1905 28.0206 65.449 28.1911C65.7076 28.3587 65.915 28.5874 66.0712 28.8772C66.2303 29.1669 66.3098 29.5291 66.3098 29.9638V34.3445H64.8269V33.4453H64.7757C64.682 33.6272 64.5499 33.7976 64.3794 33.9567C64.2118 34.1129 64.0002 34.2394 63.7445 34.336C63.4917 34.4297 63.1948 34.4766 62.8539 34.4766ZM63.2544 33.3431C63.5641 33.3431 63.8326 33.282 64.0598 33.1598C64.2871 33.0348 64.4618 32.8701 64.584 32.6655C64.709 32.461 64.7715 32.2379 64.7715 31.9965V31.2252C64.7232 31.2649 64.6408 31.3019 64.5243 31.336C64.4107 31.3701 64.2828 31.3999 64.1408 31.4254C63.9988 31.451 63.8581 31.4737 63.7189 31.4936C63.5797 31.5135 63.459 31.5306 63.3567 31.5448C63.1266 31.576 62.9206 31.6272 62.7388 31.6982C62.557 31.7692 62.4135 31.8686 62.3084 31.9965C62.2033 32.1215 62.1507 32.2834 62.1507 32.4823C62.1507 32.7664 62.2544 32.9808 62.4618 33.1257C62.6692 33.2706 62.9334 33.3431 63.2544 33.3431ZM67.861 34.3445V27.799H69.4036V34.3445H67.861ZM68.6365 26.8701C68.3922 26.8701 68.182 26.7891 68.0059 26.6272C67.8297 26.4624 67.7417 26.2649 67.7417 26.0348C67.7417 25.8019 67.8297 25.6044 68.0059 25.4425C68.182 25.2777 68.3922 25.1953 68.6365 25.1953C68.8837 25.1953 69.0939 25.2777 69.2672 25.4425C69.4434 25.6044 69.5314 25.8019 69.5314 26.0348C69.5314 26.2649 69.4434 26.4624 69.2672 26.6272C69.0939 26.7891 68.8837 26.8701 68.6365 26.8701ZM72.5325 30.5093V34.3445H70.9899V27.799H72.4643V28.9112H72.541C72.6916 28.5448 72.9316 28.2536 73.2612 28.0377C73.5936 27.8218 74.0041 27.7138 74.4927 27.7138C74.9444 27.7138 75.3379 27.8104 75.6731 28.0036C76.0112 28.1968 76.2725 28.4766 76.4572 28.8431C76.6447 29.2095 76.737 29.6541 76.7342 30.1769V34.3445H75.1916V30.4155C75.1916 29.978 75.0779 29.6357 74.8507 29.3885C74.6262 29.1414 74.3152 29.0178 73.9174 29.0178C73.6475 29.0178 73.4075 29.0774 73.1973 29.1968C72.9899 29.3132 72.8265 29.4823 72.7072 29.7039C72.5907 29.9254 72.5325 30.1939 72.5325 30.5093ZM83.4757 29.5291L82.0694 29.6826C82.0297 29.5405 81.96 29.407 81.8606 29.282C81.764 29.157 81.6333 29.0561 81.4686 28.9794C81.3038 28.9027 81.1021 28.8644 80.8635 28.8644C80.5424 28.8644 80.2725 28.934 80.0538 29.0732C79.8379 29.2124 79.7314 29.3928 79.7342 29.6144C79.7314 29.8047 79.801 29.9595 79.943 30.0789C80.0879 30.1982 80.3265 30.2962 80.6589 30.3729L81.7754 30.6115C82.3947 30.7451 82.8549 30.9567 83.1561 31.2465C83.46 31.5362 83.6135 31.9155 83.6163 32.3843C83.6135 32.7962 83.4927 33.1598 83.2541 33.4752C83.0183 33.7877 82.6902 34.032 82.2697 34.2081C81.8493 34.3843 81.3663 34.4723 80.8208 34.4723C80.0197 34.4723 79.3748 34.3047 78.8862 33.9695C78.3975 33.6314 78.1064 33.1612 78.0126 32.559L79.5169 32.4141C79.585 32.7095 79.7299 32.9326 79.9515 33.0831C80.1731 33.2337 80.4615 33.309 80.8166 33.309C81.1831 33.309 81.4771 33.2337 81.6987 33.0831C81.9231 32.9326 82.0353 32.7465 82.0353 32.5249C82.0353 32.3374 81.9629 32.1826 81.818 32.0604C81.676 31.9382 81.4544 31.8445 81.1532 31.7791L80.0368 31.5448C79.4089 31.4141 78.9444 31.1939 78.6433 30.8843C78.3422 30.5718 78.193 30.1769 78.1958 29.6996C78.193 29.2962 78.3024 28.9468 78.524 28.6513C78.7484 28.353 79.0595 28.1229 79.4572 27.961C79.8578 27.7962 80.3194 27.7138 80.8422 27.7138C81.6092 27.7138 82.2129 27.8772 82.6532 28.2039C83.0964 28.5306 83.3706 28.9723 83.4757 29.5291ZM86.6994 33.1513L86.644 33.6201C86.6042 33.978 86.5332 34.3416 86.4309 34.711C86.3315 35.0831 86.2264 35.4254 86.1156 35.7379C86.0048 36.0504 85.9153 36.2962 85.8471 36.4752H84.8074C84.8471 36.3019 84.9011 36.0661 84.9693 35.7678C85.0403 35.4695 85.1085 35.1343 85.1738 34.7621C85.2392 34.3899 85.2832 34.0121 85.3059 33.6286L85.3358 33.1513H86.6994ZM93.5634 34.4595C93.0492 34.4595 92.589 34.3274 92.1827 34.0632C91.7765 33.799 91.4554 33.4155 91.2196 32.9127C90.9838 32.4098 90.8659 31.799 90.8659 31.0803C90.8659 30.353 90.9853 29.7394 91.2239 29.2394C91.4654 28.7365 91.7907 28.3573 92.1998 28.1016C92.6088 27.8431 93.0648 27.7138 93.5676 27.7138C93.9512 27.7138 94.2665 27.7791 94.5137 27.9098C94.7608 28.0377 94.9569 28.1925 95.1017 28.3743C95.2466 28.5533 95.3588 28.7223 95.4384 28.8814H95.5023V25.6172H97.0492V34.3445H95.5321V33.3132H95.4384C95.3588 33.4723 95.2438 33.6414 95.0932 33.8203C94.9426 33.9965 94.7438 34.147 94.4966 34.272C94.2495 34.397 93.9384 34.4595 93.5634 34.4595ZM93.9938 33.1939C94.3205 33.1939 94.5989 33.1058 94.829 32.9297C95.0591 32.7507 95.2338 32.5022 95.3532 32.184C95.4725 31.8658 95.5321 31.4951 95.5321 31.0718C95.5321 30.6485 95.4725 30.2806 95.3532 29.9681C95.2367 29.6556 95.0634 29.4127 94.8333 29.2394C94.606 29.0661 94.3262 28.9794 93.9938 28.9794C93.65 28.9794 93.3631 29.0689 93.133 29.2479C92.9029 29.4269 92.7296 29.674 92.6131 29.9894C92.4966 30.3047 92.4384 30.6655 92.4384 31.0718C92.4384 31.4808 92.4966 31.8459 92.6131 32.1669C92.7324 32.4851 92.9071 32.7365 93.1373 32.9212C93.3702 33.103 93.6557 33.1939 93.9938 33.1939ZM100.577 34.4766C100.162 34.4766 99.7882 34.4027 99.4558 34.255C99.1262 34.1044 98.8649 33.8828 98.6717 33.5902C98.4814 33.2976 98.3862 32.9368 98.3862 32.5078C98.3862 32.1385 98.4544 31.8331 98.5907 31.5916C98.7271 31.3502 98.9132 31.157 99.149 31.0121C99.3848 30.8672 99.6504 30.7578 99.9458 30.684C100.244 30.6073 100.552 30.5519 100.871 30.5178C101.254 30.478 101.565 30.4425 101.804 30.4112C102.042 30.3772 102.216 30.326 102.324 30.2578C102.434 30.1868 102.49 30.0774 102.49 29.9297V29.9041C102.49 29.5831 102.395 29.3345 102.204 29.1584C102.014 28.9823 101.74 28.8942 101.382 28.8942C101.004 28.8942 100.704 28.9766 100.483 29.1414C100.264 29.3061 100.116 29.5007 100.04 29.7252L98.5993 29.5206C98.7129 29.1229 98.9004 28.7905 99.1618 28.5235C99.4231 28.2536 99.7427 28.0519 100.121 27.9183C100.498 27.782 100.916 27.7138 101.373 27.7138C101.689 27.7138 102.003 27.7507 102.315 27.8246C102.628 27.8985 102.913 28.0206 103.172 28.1911C103.43 28.3587 103.638 28.5874 103.794 28.8772C103.953 29.1669 104.032 29.5291 104.032 29.9638V34.3445H102.55V33.4453H102.498C102.405 33.6272 102.273 33.7976 102.102 33.9567C101.934 34.1129 101.723 34.2394 101.467 34.336C101.214 34.4297 100.917 34.4766 100.577 34.4766ZM100.977 33.3431C101.287 33.3431 101.555 33.282 101.782 33.1598C102.01 33.0348 102.184 32.8701 102.307 32.6655C102.432 32.461 102.494 32.2379 102.494 31.9965V31.2252C102.446 31.2649 102.363 31.3019 102.247 31.336C102.133 31.3701 102.006 31.3999 101.863 31.4254C101.721 31.451 101.581 31.4737 101.442 31.4936C101.302 31.5135 101.182 31.5306 101.079 31.5448C100.849 31.576 100.643 31.6272 100.461 31.6982C100.28 31.7692 100.136 31.8686 100.031 31.9965C99.926 32.1215 99.8734 32.2834 99.8734 32.4823C99.8734 32.7664 99.9771 32.9808 100.184 33.1257C100.392 33.2706 100.656 33.3431 100.977 33.3431ZM107.126 30.5093V34.3445H105.584V27.799H107.058V28.9112H107.135C107.285 28.5448 107.525 28.2536 107.855 28.0377C108.187 27.8218 108.598 27.7138 109.086 27.7138C109.538 27.7138 109.932 27.8104 110.267 28.0036C110.605 28.1968 110.866 28.4766 111.051 28.8431C111.238 29.2095 111.331 29.6541 111.328 30.1769V34.3445H109.785V30.4155C109.785 29.978 109.672 29.6357 109.444 29.3885C109.22 29.1414 108.909 29.0178 108.511 29.0178C108.241 29.0178 108.001 29.0774 107.791 29.1968C107.584 29.3132 107.42 29.4823 107.301 29.7039C107.184 29.9254 107.126 30.1939 107.126 30.5093ZM115.557 26.9425V25.6172H122.52V26.9425H119.823V34.3445H118.255V26.9425H115.557ZM125.743 34.4723C125.087 34.4723 124.52 34.336 124.043 34.0632C123.568 33.7877 123.203 33.3985 122.948 32.8956C122.692 32.3899 122.564 31.7948 122.564 31.1101C122.564 30.4368 122.692 29.8459 122.948 29.3374C123.206 28.826 123.567 28.4283 124.03 28.1442C124.493 27.8573 125.037 27.7138 125.662 27.7138C126.066 27.7138 126.446 27.7791 126.804 27.9098C127.165 28.0377 127.483 28.2365 127.759 28.5064C128.037 28.7763 128.256 29.1201 128.415 29.5377C128.574 29.9524 128.654 30.4468 128.654 31.0206V31.4936H123.289V30.4539H127.175C127.172 30.1584 127.108 29.8956 126.983 29.6655C126.858 29.4326 126.683 29.2493 126.459 29.1158C126.237 28.9823 125.979 28.9155 125.683 28.9155C125.368 28.9155 125.091 28.9922 124.852 29.1456C124.614 29.2962 124.428 29.4951 124.294 29.7422C124.164 29.9865 124.097 30.255 124.094 30.5476V31.4553C124.094 31.836 124.164 32.1627 124.303 32.4354C124.442 32.7053 124.637 32.9127 124.887 33.0576C125.137 33.1996 125.429 33.2706 125.764 33.2706C125.989 33.2706 126.192 33.2394 126.374 33.1769C126.556 33.1115 126.713 33.0164 126.847 32.8914C126.98 32.7664 127.081 32.6115 127.149 32.4269L128.59 32.5888C128.499 32.9695 128.325 33.3019 128.07 33.586C127.817 33.8672 127.493 34.086 127.098 34.2422C126.703 34.3956 126.252 34.4723 125.743 34.4723ZM131.365 32.2905L131.361 30.4283H131.608L133.96 27.799H135.763L132.869 31.0206H132.55L131.365 32.2905ZM129.959 34.3445V25.6172H131.501V34.3445H129.959ZM134.067 34.3445L131.936 31.3658L132.976 30.2791L135.912 34.3445H134.067ZM138.333 30.5093V34.3445H136.791V27.799H138.265V28.9112H138.342C138.492 28.5448 138.732 28.2536 139.062 28.0377C139.394 27.8218 139.805 27.7138 140.294 27.7138C140.745 27.7138 141.139 27.8104 141.474 28.0036C141.812 28.1968 142.073 28.4766 142.258 28.8431C142.445 29.2095 142.538 29.6541 142.535 30.1769V34.3445H140.992V30.4155C140.992 29.978 140.879 29.6357 140.651 29.3885C140.427 29.1414 140.116 29.0178 139.718 29.0178C139.448 29.0178 139.208 29.0774 138.998 29.1968C138.791 29.3132 138.627 29.4823 138.508 29.7039C138.392 29.9254 138.333 30.1939 138.333 30.5093ZM146.958 34.4723C146.319 34.4723 145.765 34.3317 145.296 34.0504C144.828 33.7692 144.464 33.3757 144.205 32.8701C143.95 32.3644 143.822 31.7735 143.822 31.0973C143.822 30.4212 143.95 29.8289 144.205 29.3203C144.464 28.8118 144.828 28.4169 145.296 28.1357C145.765 27.8544 146.319 27.7138 146.958 27.7138C147.597 27.7138 148.151 27.8544 148.62 28.1357C149.089 28.4169 149.451 28.8118 149.707 29.3203C149.965 29.8289 150.095 30.4212 150.095 31.0973C150.095 31.7735 149.965 32.3644 149.707 32.8701C149.451 33.3757 149.089 33.7692 148.62 34.0504C148.151 34.3317 147.597 34.4723 146.958 34.4723ZM146.967 33.2365C147.313 33.2365 147.603 33.1414 147.836 32.951C148.069 32.7578 148.242 32.4993 148.356 32.1754C148.472 31.8516 148.531 31.4908 148.531 31.0931C148.531 30.6925 148.472 30.3303 148.356 30.0064C148.242 29.6797 148.069 29.4198 147.836 29.2266C147.603 29.0334 147.313 28.9368 146.967 28.9368C146.612 28.9368 146.316 29.0334 146.08 29.2266C145.847 29.4198 145.673 29.6797 145.556 30.0064C145.443 30.3303 145.386 30.6925 145.386 31.0931C145.386 31.4908 145.443 31.8516 145.556 32.1754C145.673 32.4993 145.847 32.7578 146.08 32.951C146.316 33.1414 146.612 33.2365 146.967 33.2365ZM151.404 25.6172H152.947V32.4695C152.947 32.7138 152.983 32.8885 153.057 32.9936C153.131 33.0987 153.262 33.1485 153.449 33.1428C153.552 33.1399 153.628 33.1343 153.68 33.1257C153.733 33.1144 153.782 33.103 153.824 33.0916L154.08 34.2593C153.989 34.2877 153.876 34.3147 153.739 34.3402C153.606 34.3658 153.441 34.3814 153.245 34.3871C152.62 34.4041 152.157 34.2735 151.856 33.9951C151.555 33.7166 151.404 33.2919 151.404 32.7209V25.6172ZM157.704 34.4723C157.065 34.4723 156.511 34.3317 156.042 34.0504C155.574 33.7692 155.21 33.3757 154.952 32.8701C154.696 32.3644 154.568 31.7735 154.568 31.0973C154.568 30.4212 154.696 29.8289 154.952 29.3203C155.21 28.8118 155.574 28.4169 156.042 28.1357C156.511 27.8544 157.065 27.7138 157.704 27.7138C158.344 27.7138 158.898 27.8544 159.366 28.1357C159.835 28.4169 160.197 28.8118 160.453 29.3203C160.711 29.8289 160.841 30.4212 160.841 31.0973C160.841 31.7735 160.711 32.3644 160.453 32.8701C160.197 33.3757 159.835 33.7692 159.366 34.0504C158.898 34.3317 158.344 34.4723 157.704 34.4723ZM157.713 33.2365C158.059 33.2365 158.349 33.1414 158.582 32.951C158.815 32.7578 158.988 32.4993 159.102 32.1754C159.219 31.8516 159.277 31.4908 159.277 31.0931C159.277 30.6925 159.219 30.3303 159.102 30.0064C158.988 29.6797 158.815 29.4198 158.582 29.2266C158.349 29.0334 158.059 28.9368 157.713 28.9368C157.358 28.9368 157.062 29.0334 156.827 29.2266C156.594 29.4198 156.419 29.6797 156.302 30.0064C156.189 30.3303 156.132 30.6925 156.132 31.0931C156.132 31.4908 156.189 31.8516 156.302 32.1754C156.419 32.4993 156.594 32.7578 156.827 32.951C157.062 33.1414 157.358 33.2365 157.713 33.2365ZM164.997 36.9354C164.443 36.9354 163.967 36.8601 163.569 36.7095C163.171 36.5618 162.852 36.3629 162.61 36.1129C162.369 35.8629 162.201 35.586 162.107 35.282L163.497 34.9453C163.559 35.0732 163.65 35.1996 163.769 35.3246C163.889 35.4524 164.049 35.5576 164.251 35.6399C164.455 35.7252 164.713 35.7678 165.022 35.7678C165.46 35.7678 165.822 35.6612 166.109 35.4482C166.396 35.2379 166.539 34.8914 166.539 34.4084V33.1683H166.463C166.383 33.3274 166.267 33.4908 166.113 33.6584C165.963 33.826 165.762 33.9666 165.512 34.0803C165.265 34.1939 164.954 34.2507 164.579 34.2507C164.076 34.2507 163.62 34.1328 163.211 33.897C162.805 33.6584 162.481 33.3033 162.24 32.8317C162.001 32.3573 161.882 31.7635 161.882 31.0504C161.882 30.3317 162.001 29.7252 162.24 29.2308C162.481 28.7337 162.806 28.3573 163.215 28.1016C163.624 27.8431 164.08 27.7138 164.583 27.7138C164.967 27.7138 165.282 27.7791 165.529 27.9098C165.779 28.0377 165.978 28.1925 166.126 28.3743C166.274 28.5533 166.386 28.7223 166.463 28.8814H166.548V27.799H168.069V34.451C168.069 35.0107 167.936 35.4737 167.669 35.8402C167.401 36.2067 167.036 36.4808 166.573 36.6627C166.11 36.8445 165.585 36.9354 164.997 36.9354ZM165.009 33.0405C165.336 33.0405 165.615 32.961 165.845 32.8019C166.075 32.6428 166.249 32.4141 166.369 32.1158C166.488 31.8175 166.548 31.4595 166.548 31.0419C166.548 30.63 166.488 30.2692 166.369 29.9595C166.252 29.6499 166.079 29.4098 165.849 29.2394C165.622 29.0661 165.342 28.9794 165.009 28.9794C164.666 28.9794 164.379 29.0689 164.149 29.2479C163.919 29.4269 163.745 29.6726 163.629 29.9851C163.512 30.2948 163.454 30.647 163.454 31.0419C163.454 31.4425 163.512 31.7933 163.629 32.0945C163.748 32.3928 163.923 32.6257 164.153 32.7933C164.386 32.9581 164.671 33.0405 165.009 33.0405ZM169.65 34.3445V27.799H171.193V34.3445H169.65ZM170.426 26.8701C170.181 26.8701 169.971 26.7891 169.795 26.6272C169.619 26.4624 169.531 26.2649 169.531 26.0348C169.531 25.8019 169.619 25.6044 169.795 25.4425C169.971 25.2777 170.181 25.1953 170.426 25.1953C170.673 25.1953 170.883 25.2777 171.056 25.4425C171.232 25.6044 171.32 25.8019 171.32 26.0348C171.32 26.2649 171.232 26.4624 171.056 26.6272C170.883 26.7891 170.673 26.8701 170.426 26.8701Z" fill="black"/>
</svg>
